# Blender v2.80 (sub 75) OBJ File: 'margaritas.blend'
# www.blender.org
mtllib caladio4.mtl
o Stylizedplants_model.001
v -33.070000 18.868519 2.620503
v -41.849998 18.368420 3.345303
v -41.410900 21.256218 10.656604
v -32.320202 16.816116 10.286103
v -40.662102 19.891115 19.932304
v -31.859100 18.234816 17.997805
v -39.957901 15.870316 25.934702
v -31.177900 16.370415 25.209803
v -24.290001 19.368620 1.895603
v -23.850800 22.256416 9.206804
v -23.101999 20.891214 18.482504
v -22.397800 16.870516 24.484901
v -28.756100 26.354717 10.438505
v -18.648600 23.617317 12.188904
v -17.314400 22.583618 2.867704
v -29.220200 20.036919 3.238003
v -16.855700 17.805222 -7.253997
v -27.799500 18.984221 -6.612297
v -17.973101 10.740121 -11.851198
v -28.080601 13.477521 -13.601598
v -38.863602 29.092117 8.688205
v -37.529400 28.058418 -0.632995
v -37.070702 23.280022 -10.754696
v -38.188099 16.214920 -15.351897
v -32.794601 23.804520 3.978604
v -27.062099 23.804520 -1.753896
v -32.129200 22.820021 -6.820996
v -36.499199 18.687819 0.274003
v -37.492599 18.865421 -12.184397
v -41.855499 17.678719 -5.082297
v -39.742699 13.205921 -14.434498
v -45.475201 13.205920 -8.701998
v -38.527100 23.804518 9.711103
v -43.594200 22.820019 4.644004
v -48.957600 18.865419 -0.719397
v -51.207699 13.205920 -2.969498
v -21.605801 2.317517 5.823400
v -23.179001 2.317518 0.981600
v -21.620001 12.157219 -0.151098
v -19.678699 12.157218 5.823402
v -27.297701 2.317518 -2.010799
v -26.702200 12.157220 -3.843598
v -32.388802 2.317518 -2.010799
v -32.984200 12.157220 -3.843598
v -36.507500 2.317518 0.981600
v -38.066502 12.157219 -0.151098
v -38.080700 2.317517 5.823400
v -40.007702 12.157218 5.823402
v -36.507500 2.317516 10.665300
v -38.066502 12.157217 11.798002
v -32.388802 2.317516 13.657700
v -32.984200 12.157216 15.490402
v -27.297701 2.317516 13.657700
v -26.702200 12.157216 15.490402
v -23.179001 2.317516 10.665200
v -21.620001 12.157217 11.798002
v -19.486700 12.157219 -1.700998
v -18.932899 16.778719 -2.103397
v -16.357300 16.778719 5.823403
v -17.041901 12.157218 5.823402
v -25.887400 12.157220 -6.351398
v -25.675900 16.778721 -7.002397
v -33.799099 12.157220 -6.351398
v -34.010601 16.778721 -7.002397
v -40.199699 12.157219 -1.701098
v -40.753502 16.778719 -2.103497
v -42.644600 12.157218 5.823502
v -43.329201 16.778719 5.823503
v -40.199799 12.157217 13.347902
v -40.753601 16.778717 13.750203
v -33.799099 12.157216 17.998201
v -34.010601 16.778715 18.649302
v -25.887400 12.157216 17.998201
v -25.675900 16.778715 18.649302
v -19.486700 12.157217 13.347902
v -18.932899 16.778717 13.750203
v -19.449499 14.571518 5.823402
v -21.434500 14.571519 -0.285898
v -26.631399 14.571520 -4.061598
v -33.055099 14.571520 -4.061598
v -38.251900 14.571519 -0.285898
v -40.237000 14.571518 5.823503
v -38.251900 14.571517 11.932702
v -33.055099 14.571516 15.708402
v -26.631399 14.571516 15.708402
v -21.434500 14.571517 11.932702
v -21.434500 16.778719 -0.285897
v -19.449499 16.778719 5.823403
v -26.631399 16.778719 -4.061597
v -33.055099 16.778719 -4.061597
v -38.251900 16.778719 -0.285897
v -40.237000 16.778719 5.823503
v -38.251900 16.778717 11.932703
v -33.055099 16.778717 15.708403
v -26.631399 16.778717 15.708403
v -21.434500 16.778717 11.932703
v -52.444599 2.312722 -17.037500
v -52.444599 2.312715 28.153099
v -7.254000 2.312715 28.153099
v -7.254000 2.312722 -17.037500
v -50.612099 5.122518 5.575501
v -48.533600 0.491218 4.199100
v -44.270699 2.954417 2.348600
v -46.349201 7.585719 3.725001
v -27.130899 7.061421 -11.055599
v -27.304399 1.181521 -9.174000
v -33.999500 1.842420 -7.593299
v -33.826000 7.722420 -9.474899
v -14.829700 12.383717 3.701102
v -14.829700 1.429917 3.701100
v -22.575199 1.429916 11.446600
v -22.575199 12.383716 11.446602
v -38.182301 12.212318 -1.737498
v -38.182301 1.441719 -1.737500
v -44.866001 1.441718 5.154900
v -44.866001 12.212317 5.154902
v -46.379902 8.783016 14.848202
v -46.379902 1.583616 14.848200
v -37.138901 1.583616 12.634100
v -37.138901 8.783017 12.634102
vt 0.478200 0.999500
vt 0.380500 0.999500
vt 0.380500 0.894500
vt 0.512300 0.894500
vt 0.380500 0.804700
vt 0.500000 0.804700
vt 0.380500 0.695300
vt 0.497800 0.695300
vt 0.623100 0.999500
vt 0.623100 0.894500
vt 0.623100 0.804700
vt 0.623100 0.695300
vt 0.478200 0.999500
vt 0.380500 0.999500
vt 0.380500 0.894500
vt 0.512300 0.894500
vt 0.380500 0.804700
vt 0.500000 0.804700
vt 0.380500 0.695300
vt 0.497800 0.695300
vt 0.623100 0.999500
vt 0.623100 0.894500
vt 0.623100 0.804700
vt 0.623100 0.695300
vt 0.478200 0.999500
vt 0.380500 0.999500
vt 0.380500 0.894500
vt 0.512300 0.894500
vt 0.380500 0.804700
vt 0.500000 0.804700
vt 0.380500 0.695300
vt 0.497800 0.695300
vt 0.623100 0.999500
vt 0.623100 0.894500
vt 0.623100 0.804700
vt 0.623100 0.695300
vt 0.665900 0.113100
vt 0.665900 0.143400
vt 0.615000 0.134100
vt 0.615000 0.098300
vt 0.665900 0.175000
vt 0.615000 0.170100
vt 0.665900 0.207300
vt 0.615000 0.206000
vt 0.665900 0.239500
vt 0.615000 0.242200
vt 0.665900 0.271400
vt 0.615000 0.278300
vt 0.665900 0.302300
vt 0.615000 0.314400
vt 0.665900 0.331200
vt 0.615000 0.350000
vt 0.665900 0.357400
vt 0.615000 0.382900
vt 0.665900 0.059400
vt 0.665900 0.084800
vt 0.615000 0.063300
vt 0.615000 0.031100
vt 0.601700 0.131800
vt 0.575100 0.127900
vt 0.575100 0.089700
vt 0.601700 0.094800
vt 0.601700 0.168700
vt 0.575100 0.166300
vt 0.601700 0.205700
vt 0.575100 0.205000
vt 0.601700 0.242800
vt 0.575100 0.243700
vt 0.601700 0.279900
vt 0.575100 0.282400
vt 0.601700 0.317200
vt 0.575100 0.321000
vt 0.601700 0.355100
vt 0.575100 0.360000
vt 0.601700 0.394400
vt 0.575100 0.402100
vt 0.601700 0.057500
vt 0.575100 0.051200
vt 0.575100 0.009600
vt 0.601700 0.018900
vt 0.474200 0.437800
vt 0.439600 0.426600
vt 0.418200 0.397200
vt 0.418200 0.360800
vt 0.439600 0.331400
vt 0.474200 0.320100
vt 0.508800 0.331400
vt 0.530200 0.360800
vt 0.530200 0.397200
vt 0.508800 0.426600
vt 0.557700 0.125800
vt 0.557700 0.087400
vt 0.557700 0.165000
vt 0.557700 0.204600
vt 0.557700 0.244300
vt 0.557700 0.283700
vt 0.557700 0.322500
vt 0.557700 0.360300
vt 0.557700 0.396600
vt 0.557700 0.050000
vt 0.557700 0.014100
vt 0.545700 0.124100
vt 0.545700 0.085300
vt 0.545700 0.163900
vt 0.545700 0.204300
vt 0.545700 0.244800
vt 0.545700 0.284800
vt 0.545700 0.323900
vt 0.545700 0.361100
vt 0.545700 0.396600
vt 0.545700 0.048600
vt 0.545700 0.013400
vt 0.220000 0.297100
vt 0.220000 0.012500
vt 0.504500 0.012500
vt 0.504500 0.297100
vt 0.012700 0.674300
vt 0.012700 0.531100
vt 0.155900 0.531100
vt 0.155900 0.674300
vt 0.012700 0.674300
vt 0.012700 0.531100
vt 0.155900 0.531100
vt 0.155900 0.674300
vt 0.012700 0.674300
vt 0.012700 0.531100
vt 0.155900 0.531100
vt 0.155900 0.674300
vt 0.012700 0.674300
vt 0.012700 0.531100
vt 0.155900 0.531100
vt 0.155900 0.674300
vt 0.012700 0.674300
vt 0.012700 0.531100
vt 0.155900 0.531100
vt 0.155900 0.674300
vn 0.2106 0.9750 -0.0711
vn -0.0557 0.9978 0.0361
vn 0.4716 0.8720 -0.1314
vn 0.2718 0.9046 0.3285
vn -0.0544 0.9983 0.0196
vn -0.0014 0.8308 0.5566
vn -0.0342 0.9668 0.2532
vn -0.0828 0.9286 -0.3618
vn -0.0333 0.9646 0.2615
vn -0.5824 0.8113 -0.0504
vn -0.3150 0.8730 0.3724
vn 0.3022 0.7068 -0.6396
vn 0.2717 0.9600 -0.0676
vn -0.2531 0.9223 -0.2921
vn 0.3020 0.8790 -0.3691
vn 0.0134 0.7458 -0.6660
vn 0.2985 0.9012 -0.3143
vn 0.2764 0.4931 -0.8249
vn 0.3044 0.7422 -0.5970
vn 0.7502 0.6506 -0.1184
vn 0.5643 0.5966 -0.5706
vn -0.4918 0.8638 -0.1091
vn -0.3085 0.8998 -0.3085
vn -0.5590 0.8080 0.1862
vn -0.6816 0.6791 -0.2724
vn -0.2703 0.9240 -0.2703
vn -0.6164 0.4901 -0.6164
vn -0.4653 0.7530 -0.4653
vn -0.0962 0.9907 -0.0962
vn -0.4941 0.7154 -0.4941
vn 0.1862 0.8080 -0.5590
vn -0.2724 0.6791 -0.6816
vn 0.9350 -0.1831 -0.3038
vn 0.7939 -0.1922 -0.5768
vn 0.3033 -0.1922 -0.9333
vn 0.1691 -0.8370 -0.5204
vn 0.4427 -0.8370 -0.3216
vn -0.3033 -0.1922 -0.9333
vn -0.1691 -0.8370 -0.5204
vn -0.7939 -0.1922 -0.5768
vn -0.4427 -0.8370 -0.3216
vn -0.9814 -0.1922 -0.0000
vn -0.5472 -0.8370 -0.0000
vn -0.7939 -0.1922 0.5768
vn -0.4427 -0.8370 0.3216
vn -0.3033 -0.1922 0.9333
vn -0.1691 -0.8370 0.5204
vn 0.3033 -0.1922 0.9333
vn 0.1691 -0.8370 0.5204
vn 0.7939 -0.1922 0.5768
vn 0.4427 -0.8370 0.3216
vn 0.9814 -0.1922 -0.0000
vn 0.5472 -0.8370 0.0000
vn 0.5796 -0.6977 -0.4211
vn 0.6545 0.5878 -0.4755
vn 0.8090 0.5878 -0.0000
vn 0.7164 -0.6977 -0.0000
vn 0.2214 -0.6977 -0.6814
vn 0.2500 0.5878 -0.7694
vn -0.2214 -0.6977 -0.6814
vn -0.2500 0.5878 -0.7694
vn -0.5796 -0.6977 -0.4211
vn -0.6545 0.5878 -0.4755
vn -0.7164 -0.6977 -0.0000
vn -0.8090 0.5878 -0.0000
vn -0.5796 -0.6977 0.4211
vn -0.6545 0.5878 0.4755
vn -0.2214 -0.6977 0.6814
vn -0.2500 0.5878 0.7694
vn 0.2214 -0.6977 0.6814
vn 0.2500 0.5878 0.7694
vn 0.5796 -0.6977 0.4211
vn 0.6545 0.5878 0.4755
vn -0.7653 0.6437 0.0000
vn -0.6191 0.6437 0.4498
vn -0.2365 0.6437 0.7278
vn 0.2365 0.6437 0.7278
vn 0.6191 0.6437 0.4498
vn 0.7653 0.6437 -0.0000
vn 0.6191 0.6437 -0.4498
vn 0.2365 0.6437 -0.7278
vn -0.2365 0.6437 -0.7278
vn -0.6191 0.6437 -0.4498
vn -0.5025 0.7837 0.3651
vn -0.6211 0.7837 0.0000
vn -0.1919 0.7837 0.5907
vn 0.1919 0.7837 0.5907
vn 0.5025 0.7837 0.3651
vn 0.6211 0.7837 -0.0000
vn 0.5025 0.7837 -0.3651
vn 0.1919 0.7837 -0.5907
vn -0.1919 0.7837 -0.5907
vn -0.5025 0.7837 -0.3651
vn 0.0000 1.0000 0.0000
vn 0.4324 -0.0731 0.8987
vn -0.2469 -0.2887 -0.9250
vn -0.7071 0.0000 -0.7071
vn -0.7179 0.0000 -0.6962
vn 0.2330 -0.0000 0.9725
usemtl plants_model:Plane043SG.005
s 1
f 1/1/1 2/2/1 3/3/1 4/4/1
f 4/4/2 3/3/3 5/5/4 6/6/5
f 6/6/5 5/5/4 7/7/6 8/8/7
f 9/9/8 1/1/9 4/4/2 10/10/10
f 10/10/10 4/4/2 6/6/5 11/11/11
f 11/11/11 6/6/5 8/8/7 12/12/6
f 13/13/12 14/14/13 15/15/14 16/16/15
f 16/16/15 15/15/14 17/17/16 18/18/17
f 18/18/17 17/17/16 19/19/18 20/20/19
f 21/21/13 13/13/12 16/16/15 22/22/20
f 22/22/20 16/16/15 18/18/17 23/23/21
f 23/23/21 18/18/17 20/20/19 24/24/18
f 25/25/22 26/26/22 27/27/22 28/28/22
f 28/28/23 27/27/24 29/29/25 30/30/26
f 30/30/26 29/29/25 31/31/27 32/32/28
f 33/33/29 25/25/30 28/28/23 34/34/31
f 34/34/31 28/28/23 30/30/26 35/35/32
f 35/35/32 30/30/26 32/32/28 36/36/27
f 37/37/33 38/38/33 39/39/33 40/40/33
f 38/38/34 41/41/35 42/42/36 39/39/37
f 41/41/35 43/43/38 44/44/39 42/42/36
f 43/43/38 45/45/40 46/46/41 44/44/39
f 45/45/40 47/47/42 48/48/43 46/46/41
f 47/47/42 49/49/44 50/50/45 48/48/43
f 49/49/44 51/51/46 52/52/47 50/50/45
f 51/51/46 53/53/48 54/54/49 52/52/47
f 53/55/48 55/56/50 56/57/51 54/58/49
f 55/56/50 37/37/52 40/40/53 56/57/51
f 57/59/54 58/60/55 59/61/56 60/62/57
f 61/63/58 62/64/59 58/60/55 57/59/54
f 63/65/60 64/66/61 62/64/59 61/63/58
f 65/67/62 66/68/63 64/66/61 63/65/60
f 67/69/64 68/70/65 66/68/63 65/67/62
f 69/71/66 70/72/67 68/70/65 67/69/64
f 71/73/68 72/74/69 70/72/67 69/71/66
f 73/75/70 74/76/71 72/74/69 71/73/68
f 75/77/72 76/78/73 74/79/71 73/80/70
f 60/62/57 59/61/56 76/78/73 75/77/72
f 77/81/74 78/82/75 79/83/76 80/84/77 81/85/78 82/86/79 83/87/80 84/88/81 85/89/82 86/90/83
f 40/40/53 39/39/37 57/59/54 60/62/57
f 39/39/37 42/42/36 61/63/58 57/59/54
f 42/42/36 44/44/39 63/65/60 61/63/58
f 44/44/39 46/46/41 65/67/62 63/65/60
f 46/46/41 48/48/43 67/69/64 65/67/62
f 48/48/43 50/50/45 69/71/66 67/69/64
f 50/50/45 52/52/47 71/73/68 69/71/66
f 52/52/47 54/54/49 73/75/70 71/73/68
f 54/58/49 56/57/51 75/77/72 73/80/70
f 56/57/51 40/40/53 60/62/57 75/77/72
f 59/61/56 58/60/55 87/91/84 88/92/85
f 58/60/55 62/64/59 89/93/86 87/91/84
f 62/64/59 64/66/61 90/94/87 89/93/86
f 64/66/61 66/68/63 91/95/88 90/94/87
f 66/68/63 68/70/65 92/96/89 91/95/88
f 68/70/65 70/72/67 93/97/90 92/96/89
f 70/72/67 72/74/69 94/98/91 93/97/90
f 72/74/69 74/76/71 95/99/92 94/98/91
f 74/79/71 76/78/73 96/100/93 95/101/92
f 76/78/73 59/61/56 88/92/85 96/100/93
f 88/92/85 87/91/84 78/102/75 77/103/74
f 87/91/84 89/93/86 79/104/76 78/102/75
f 89/93/86 90/94/87 80/105/77 79/104/76
f 90/94/87 91/95/88 81/106/78 80/105/77
f 91/95/88 92/96/89 82/107/79 81/106/78
f 92/96/89 93/97/90 83/108/80 82/107/79
f 93/97/90 94/98/91 84/109/81 83/108/80
f 94/98/91 95/99/92 85/110/82 84/109/81
f 95/101/92 96/100/93 86/111/83 85/112/82
f 96/100/93 88/92/85 77/103/74 86/111/83
f 97/113/94 98/114/94 99/115/94 100/116/94
f 101/117/95 102/118/95 103/119/95 104/120/95
f 105/121/96 106/122/96 107/123/96 108/124/96
f 109/125/97 110/126/97 111/127/97 112/128/97
f 113/129/98 114/130/98 115/131/98 116/132/98
f 117/133/99 118/134/99 119/135/99 120/136/99
