# Blender v2.80 (sub 75) OBJ File: 'margaritas.blend'
# www.blender.org
mtllib caladio3.mtl
o Stylizedplants_model.001
v -31.099329 15.794559 6.197718
v -33.605774 15.722154 8.381965
v -32.744152 18.349676 9.457770
v -29.344675 17.103830 8.254548
v -30.837460 20.251026 11.762792
v -28.192286 19.411043 9.707469
v -29.065321 20.589148 13.819149
v -26.558891 20.661530 11.634876
v -28.592901 15.866941 4.013445
v -27.731262 18.494438 5.089205
v -25.824556 20.395761 7.394247
v -24.052433 20.733910 9.450584
v -29.571636 14.694009 4.176630
v -25.415972 14.495698 4.156558
v -25.322369 16.755682 1.213207
v -29.586500 14.763047 0.419080
v -25.278456 18.099072 -2.965806
v -29.486948 17.163366 -2.680677
v -25.335863 17.222176 -6.179842
v -29.491526 17.420488 -6.159770
v -33.727299 14.892296 4.196727
v -33.633694 17.152277 1.253376
v -33.589783 18.495668 -2.925637
v -33.647190 17.618774 -6.139672
v -31.943190 15.094523 6.510377
v -30.262449 15.116189 4.885193
v -31.276945 16.620680 3.856072
v -33.392868 15.448758 5.015868
v -32.819733 17.719181 2.275196
v -34.460182 17.044472 3.933343
v -34.111107 17.501570 0.936785
v -35.791847 17.479910 2.561970
v -33.623924 15.072860 8.135565
v -34.638428 16.577347 7.106443
v -36.181213 17.675852 5.525568
v -37.472580 17.458241 4.187156
v -21.605801 2.317517 5.823400
v -23.179001 2.317518 0.981600
v -21.620001 12.157219 -0.151098
v -19.678699 12.157218 5.823402
v -27.297701 2.317518 -2.010799
v -26.702200 12.157220 -3.843598
v -32.388802 2.317518 -2.010799
v -32.984200 12.157220 -3.843598
v -36.507500 2.317518 0.981600
v -38.066502 12.157219 -0.151098
v -38.080700 2.317517 5.823400
v -40.007702 12.157218 5.823402
v -36.507500 2.317516 10.665300
v -38.066502 12.157217 11.798002
v -32.388802 2.317516 13.657700
v -32.984200 12.157216 15.490402
v -27.297701 2.317516 13.657700
v -26.702200 12.157216 15.490402
v -23.179001 2.317516 10.665200
v -21.620001 12.157217 11.798002
v -19.486700 12.157219 -1.700998
v -18.932899 16.778719 -2.103397
v -16.357300 16.778719 5.823403
v -17.041901 12.157218 5.823402
v -25.887400 12.157220 -6.351398
v -25.675900 16.778721 -7.002397
v -33.799099 12.157220 -6.351398
v -34.010601 16.778721 -7.002397
v -40.199699 12.157219 -1.701098
v -40.753502 16.778719 -2.103497
v -42.644600 12.157218 5.823502
v -43.329201 16.778719 5.823503
v -40.199799 12.157217 13.347902
v -40.753601 16.778717 13.750203
v -33.799099 12.157216 17.998201
v -34.010601 16.778715 18.649302
v -25.887400 12.157216 17.998201
v -25.675900 16.778715 18.649302
v -19.486700 12.157217 13.347902
v -18.932899 16.778717 13.750203
v -19.449499 14.571518 5.823402
v -21.434500 14.571519 -0.285898
v -26.631399 14.571520 -4.061598
v -33.055099 14.571520 -4.061598
v -38.251900 14.571519 -0.285898
v -40.237000 14.571518 5.823503
v -38.251900 14.571517 11.932702
v -33.055099 14.571516 15.708402
v -26.631399 14.571516 15.708402
v -21.434500 14.571517 11.932702
v -21.434500 16.778719 -0.285897
v -19.449499 16.778719 5.823403
v -26.631399 16.778719 -4.061597
v -33.055099 16.778719 -4.061597
v -38.251900 16.778719 -0.285897
v -40.237000 16.778719 5.823503
v -38.251900 16.778717 11.932703
v -33.055099 16.778717 15.708403
v -26.631399 16.778717 15.708403
v -21.434500 16.778717 11.932703
v -52.444599 2.312722 -17.037500
v -52.444599 2.312715 28.153099
v -7.254000 2.312715 28.153099
v -7.254000 2.312722 -17.037500
v -50.612099 5.122518 5.575501
v -48.533600 0.491218 4.199100
v -44.270699 2.954417 2.348600
v -46.349201 7.585719 3.725001
v -27.130899 7.061421 -11.055599
v -27.304399 1.181521 -9.174000
v -33.999500 1.842420 -7.593299
v -33.826000 7.722420 -9.474899
v -14.829700 12.383717 3.701102
v -14.829700 1.429917 3.701100
v -22.575199 1.429916 11.446600
v -22.575199 12.383716 11.446602
v -38.182301 12.212318 -1.737498
v -38.182301 1.441719 -1.737500
v -44.866001 1.441718 5.154900
v -44.866001 12.212317 5.154902
v -46.379902 8.783016 14.848202
v -46.379902 1.583616 14.848200
v -37.138901 1.583616 12.634100
v -37.138901 8.783017 12.634102
v -28.627821 15.188706 4.599816
v -27.078192 15.310250 6.346370
v -26.055498 16.820475 5.333893
v -27.084429 15.553603 3.205043
v -24.445936 17.929333 3.828633
v -26.009085 17.155333 2.139477
v -23.046736 17.721952 2.601612
v -24.596365 17.600412 0.855057
v -30.177454 15.067163 2.853265
v -29.154764 16.577387 1.840778
v -27.545202 17.686245 0.335521
v -26.145998 17.478865 -0.891489
v -27.129999 14.621961 7.322118
v -28.167484 14.643626 9.417290
v -26.866339 16.148115 10.046032
v -25.262676 14.976195 8.243112
v -24.882313 17.246618 11.017114
v -23.893848 16.571909 8.904424
v -23.216515 17.029005 11.844222
v -22.179033 17.007345 9.749054
v -26.092522 14.600297 5.226946
v -24.791370 16.104784 5.855687
v -22.807348 17.203287 6.826769
v -21.141554 16.985678 7.653883
vt 0.478200 0.999500
vt 0.380500 0.999500
vt 0.380500 0.894500
vt 0.512300 0.894500
vt 0.380500 0.804700
vt 0.500000 0.804700
vt 0.380500 0.695300
vt 0.497800 0.695300
vt 0.623100 0.999500
vt 0.623100 0.894500
vt 0.623100 0.804700
vt 0.623100 0.695300
vt 0.478200 0.999500
vt 0.380500 0.999500
vt 0.380500 0.894500
vt 0.512300 0.894500
vt 0.380500 0.804700
vt 0.500000 0.804700
vt 0.380500 0.695300
vt 0.497800 0.695300
vt 0.623100 0.999500
vt 0.623100 0.894500
vt 0.623100 0.804700
vt 0.623100 0.695300
vt 0.478200 0.999500
vt 0.380500 0.999500
vt 0.380500 0.894500
vt 0.512300 0.894500
vt 0.380500 0.804700
vt 0.500000 0.804700
vt 0.380500 0.695300
vt 0.497800 0.695300
vt 0.623100 0.999500
vt 0.623100 0.894500
vt 0.623100 0.804700
vt 0.623100 0.695300
vt 0.665900 0.113100
vt 0.665900 0.143400
vt 0.615000 0.134100
vt 0.615000 0.098300
vt 0.665900 0.175000
vt 0.615000 0.170100
vt 0.665900 0.207300
vt 0.615000 0.206000
vt 0.665900 0.239500
vt 0.615000 0.242200
vt 0.665900 0.271400
vt 0.615000 0.278300
vt 0.665900 0.302300
vt 0.615000 0.314400
vt 0.665900 0.331200
vt 0.615000 0.350000
vt 0.665900 0.357400
vt 0.615000 0.382900
vt 0.665900 0.059400
vt 0.665900 0.084800
vt 0.615000 0.063300
vt 0.615000 0.031100
vt 0.601700 0.131800
vt 0.575100 0.127900
vt 0.575100 0.089700
vt 0.601700 0.094800
vt 0.601700 0.168700
vt 0.575100 0.166300
vt 0.601700 0.205700
vt 0.575100 0.205000
vt 0.601700 0.242800
vt 0.575100 0.243700
vt 0.601700 0.279900
vt 0.575100 0.282400
vt 0.601700 0.317200
vt 0.575100 0.321000
vt 0.601700 0.355100
vt 0.575100 0.360000
vt 0.601700 0.394400
vt 0.575100 0.402100
vt 0.601700 0.057500
vt 0.575100 0.051200
vt 0.575100 0.009600
vt 0.601700 0.018900
vt 0.474200 0.437800
vt 0.439600 0.426600
vt 0.418200 0.397200
vt 0.418200 0.360800
vt 0.439600 0.331400
vt 0.474200 0.320100
vt 0.508800 0.331400
vt 0.530200 0.360800
vt 0.530200 0.397200
vt 0.508800 0.426600
vt 0.557700 0.125800
vt 0.557700 0.087400
vt 0.557700 0.165000
vt 0.557700 0.204600
vt 0.557700 0.244300
vt 0.557700 0.283700
vt 0.557700 0.322500
vt 0.557700 0.360300
vt 0.557700 0.396600
vt 0.557700 0.050000
vt 0.557700 0.014100
vt 0.545700 0.124100
vt 0.545700 0.085300
vt 0.545700 0.163900
vt 0.545700 0.204300
vt 0.545700 0.244800
vt 0.545700 0.284800
vt 0.545700 0.323900
vt 0.545700 0.361100
vt 0.545700 0.396600
vt 0.545700 0.048600
vt 0.545700 0.013400
vt 0.220000 0.297100
vt 0.220000 0.012500
vt 0.504500 0.012500
vt 0.504500 0.297100
vt 0.012700 0.674300
vt 0.012700 0.531100
vt 0.155900 0.531100
vt 0.155900 0.674300
vt 0.012700 0.674300
vt 0.012700 0.531100
vt 0.155900 0.531100
vt 0.155900 0.674300
vt 0.012700 0.674300
vt 0.012700 0.531100
vt 0.155900 0.531100
vt 0.155900 0.674300
vt 0.012700 0.674300
vt 0.012700 0.531100
vt 0.155900 0.531100
vt 0.155900 0.674300
vt 0.012700 0.674300
vt 0.012700 0.531100
vt 0.155900 0.531100
vt 0.155900 0.674300
vt 0.478200 0.999500
vt 0.380500 0.999500
vt 0.380500 0.894500
vt 0.512300 0.894500
vt 0.380500 0.804700
vt 0.500000 0.804700
vt 0.380500 0.695300
vt 0.497800 0.695300
vt 0.623100 0.999500
vt 0.623100 0.894500
vt 0.623100 0.804700
vt 0.623100 0.695300
vt 0.478200 0.999500
vt 0.380500 0.999500
vt 0.380500 0.894500
vt 0.512300 0.894500
vt 0.380500 0.804700
vt 0.500000 0.804700
vt 0.380500 0.695300
vt 0.497800 0.695300
vt 0.623100 0.999500
vt 0.623100 0.894500
vt 0.623100 0.804700
vt 0.623100 0.695300
vn -0.2466 0.6985 -0.6718
vn -0.4275 0.7770 -0.4620
vn -0.0182 0.5896 -0.8075
vn -0.0004 0.9080 -0.4191
vn -0.4337 0.7667 -0.4735
vn -0.0976 0.9921 -0.0791
vn -0.3062 0.8960 -0.3217
vn -0.5896 0.4640 -0.6611
vn -0.3012 0.8997 -0.3159
vn -0.8190 0.5622 -0.1151
vn -0.4475 0.8936 -0.0355
vn 0.0478 0.9987 0.0182
vn 0.0407 0.7919 0.6093
vn -0.4884 0.7794 0.3923
vn 0.0465 0.9415 0.3337
vn -0.2433 0.9699 0.0107
vn 0.0458 0.9201 0.3889
vn 0.0447 0.9636 -0.2637
vn 0.0479 0.9961 0.0736
vn 0.0408 0.7919 0.6093
vn 0.5642 0.7292 0.3872
vn 0.3347 0.9423 0.0079
vn 0.1118 0.8491 0.5163
vn 0.3217 0.8820 0.3444
vn -0.0369 0.6835 0.7290
vn -0.1083 0.9423 0.3169
vn 0.3576 0.8526 0.3811
vn -0.0874 0.9932 -0.0772
vn 0.1478 0.9750 0.1659
vn 0.4968 0.6926 0.5230
vn 0.1100 0.9858 0.1269
vn 0.7207 0.6932 -0.0035
vn 0.3077 0.9476 -0.0854
vn 0.9350 -0.1831 -0.3038
vn 0.7939 -0.1922 -0.5768
vn 0.3033 -0.1922 -0.9333
vn 0.1691 -0.8370 -0.5204
vn 0.4427 -0.8370 -0.3216
vn -0.3033 -0.1922 -0.9333
vn -0.1691 -0.8370 -0.5204
vn -0.7939 -0.1922 -0.5768
vn -0.4427 -0.8370 -0.3216
vn -0.9814 -0.1922 -0.0000
vn -0.5472 -0.8370 -0.0000
vn -0.7939 -0.1922 0.5768
vn -0.4427 -0.8370 0.3216
vn -0.3033 -0.1922 0.9333
vn -0.1691 -0.8370 0.5204
vn 0.3033 -0.1922 0.9333
vn 0.1691 -0.8370 0.5204
vn 0.7939 -0.1922 0.5768
vn 0.4427 -0.8370 0.3216
vn 0.9814 -0.1922 -0.0000
vn 0.5472 -0.8370 0.0000
vn 0.5796 -0.6977 -0.4211
vn 0.6545 0.5878 -0.4755
vn 0.8090 0.5878 -0.0000
vn 0.7164 -0.6977 -0.0000
vn 0.2214 -0.6977 -0.6814
vn 0.2500 0.5878 -0.7694
vn -0.2214 -0.6977 -0.6814
vn -0.2500 0.5878 -0.7694
vn -0.5796 -0.6977 -0.4211
vn -0.6545 0.5878 -0.4755
vn -0.7164 -0.6977 -0.0000
vn -0.8090 0.5878 -0.0000
vn -0.5796 -0.6977 0.4211
vn -0.6545 0.5878 0.4755
vn -0.2214 -0.6977 0.6814
vn -0.2500 0.5878 0.7694
vn 0.2214 -0.6977 0.6814
vn 0.2500 0.5878 0.7694
vn 0.5796 -0.6977 0.4211
vn 0.6545 0.5878 0.4755
vn -0.7653 0.6437 0.0000
vn -0.6191 0.6437 0.4498
vn -0.2365 0.6437 0.7278
vn 0.2365 0.6437 0.7278
vn 0.6191 0.6437 0.4498
vn 0.7653 0.6437 -0.0000
vn 0.6191 0.6437 -0.4498
vn 0.2365 0.6437 -0.7278
vn -0.2365 0.6437 -0.7278
vn -0.6191 0.6437 -0.4498
vn -0.5025 0.7837 0.3651
vn -0.6211 0.7837 0.0000
vn -0.1919 0.7837 0.5907
vn 0.1919 0.7837 0.5907
vn 0.5025 0.7837 0.3651
vn 0.6211 0.7837 -0.0000
vn 0.5025 0.7837 -0.3651
vn 0.1919 0.7837 -0.5907
vn -0.1919 0.7837 -0.5907
vn -0.5025 0.7837 -0.3651
vn 0.0000 1.0000 0.0000
vn 0.4324 -0.0731 0.8987
vn -0.2469 -0.2887 -0.9250
vn -0.7071 0.0000 -0.7071
vn -0.7179 0.0000 -0.6962
vn 0.2330 -0.0000 0.9725
vn -0.5478 0.8340 0.0657
vn -0.3863 0.8783 0.2817
vn -0.7485 0.6574 -0.0870
vn -0.3422 0.9278 -0.1483
vn -0.4236 0.8487 0.3168
vn 0.0487 0.9925 -0.1123
vn -0.2036 0.9725 0.1130
vn -0.5660 0.6878 0.4544
vn -0.1633 0.9836 0.0765
vn -0.0500 0.7122 0.7002
vn 0.0413 0.9579 0.2840
vn -0.2786 0.8491 -0.4488
vn -0.4186 0.8820 -0.2164
vn -0.2101 0.6835 -0.6991
vn -0.0044 0.9423 -0.3348
vn -0.4648 0.8526 -0.2390
vn 0.1083 0.9932 0.0433
vn -0.1950 0.9750 -0.1066
vn -0.6435 0.6926 -0.3258
vn -0.1462 0.9858 -0.0826
vn -0.6777 0.6932 0.2453
vn -0.2612 0.9476 0.1838
vn 0.1083 0.9932 0.0434
usemtl plants_model:Plane043SG.005
s 1
f 1/1/1 2/2/1 3/3/1 4/4/1
f 4/4/2 3/3/3 5/5/4 6/6/5
f 6/6/5 5/5/4 7/7/6 8/8/7
f 9/9/8 1/1/9 4/4/2 10/10/10
f 10/10/10 4/4/2 6/6/5 11/11/11
f 11/11/11 6/6/5 8/8/7 12/12/6
f 13/13/12 14/14/13 15/15/14 16/16/15
f 16/16/15 15/15/14 17/17/16 18/18/17
f 18/18/17 17/17/16 19/19/18 20/20/19
f 21/21/20 13/13/12 16/16/15 22/22/21
f 22/22/21 16/16/15 18/18/17 23/23/22
f 23/23/22 18/18/17 20/20/19 24/24/18
f 25/25/23 26/26/23 27/27/23 28/28/23
f 28/28/24 27/27/25 29/29/26 30/30/27
f 30/30/27 29/29/26 31/31/28 32/32/29
f 33/33/30 25/25/31 28/28/24 34/34/32
f 34/34/32 28/28/24 30/30/27 35/35/33
f 35/35/33 30/30/27 32/32/29 36/36/28
f 37/37/34 38/38/34 39/39/34 40/40/34
f 38/38/35 41/41/36 42/42/37 39/39/38
f 41/41/36 43/43/39 44/44/40 42/42/37
f 43/43/39 45/45/41 46/46/42 44/44/40
f 45/45/41 47/47/43 48/48/44 46/46/42
f 47/47/43 49/49/45 50/50/46 48/48/44
f 49/49/45 51/51/47 52/52/48 50/50/46
f 51/51/47 53/53/49 54/54/50 52/52/48
f 53/55/49 55/56/51 56/57/52 54/58/50
f 55/56/51 37/37/53 40/40/54 56/57/52
f 57/59/55 58/60/56 59/61/57 60/62/58
f 61/63/59 62/64/60 58/60/56 57/59/55
f 63/65/61 64/66/62 62/64/60 61/63/59
f 65/67/63 66/68/64 64/66/62 63/65/61
f 67/69/65 68/70/66 66/68/64 65/67/63
f 69/71/67 70/72/68 68/70/66 67/69/65
f 71/73/69 72/74/70 70/72/68 69/71/67
f 73/75/71 74/76/72 72/74/70 71/73/69
f 75/77/73 76/78/74 74/79/72 73/80/71
f 60/62/58 59/61/57 76/78/74 75/77/73
f 77/81/75 78/82/76 79/83/77 80/84/78 81/85/79 82/86/80 83/87/81 84/88/82 85/89/83 86/90/84
f 40/40/54 39/39/38 57/59/55 60/62/58
f 39/39/38 42/42/37 61/63/59 57/59/55
f 42/42/37 44/44/40 63/65/61 61/63/59
f 44/44/40 46/46/42 65/67/63 63/65/61
f 46/46/42 48/48/44 67/69/65 65/67/63
f 48/48/44 50/50/46 69/71/67 67/69/65
f 50/50/46 52/52/48 71/73/69 69/71/67
f 52/52/48 54/54/50 73/75/71 71/73/69
f 54/58/50 56/57/52 75/77/73 73/80/71
f 56/57/52 40/40/54 60/62/58 75/77/73
f 59/61/57 58/60/56 87/91/85 88/92/86
f 58/60/56 62/64/60 89/93/87 87/91/85
f 62/64/60 64/66/62 90/94/88 89/93/87
f 64/66/62 66/68/64 91/95/89 90/94/88
f 66/68/64 68/70/66 92/96/90 91/95/89
f 68/70/66 70/72/68 93/97/91 92/96/90
f 70/72/68 72/74/70 94/98/92 93/97/91
f 72/74/70 74/76/72 95/99/93 94/98/92
f 74/79/72 76/78/74 96/100/94 95/101/93
f 76/78/74 59/61/57 88/92/86 96/100/94
f 88/92/86 87/91/85 78/102/76 77/103/75
f 87/91/85 89/93/87 79/104/77 78/102/76
f 89/93/87 90/94/88 80/105/78 79/104/77
f 90/94/88 91/95/89 81/106/79 80/105/78
f 91/95/89 92/96/90 82/107/80 81/106/79
f 92/96/90 93/97/91 83/108/81 82/107/80
f 93/97/91 94/98/92 84/109/82 83/108/81
f 94/98/92 95/99/93 85/110/83 84/109/82
f 95/101/93 96/100/94 86/111/84 85/112/83
f 96/100/94 88/92/86 77/103/75 86/111/84
f 97/113/95 98/114/95 99/115/95 100/116/95
f 101/117/96 102/118/96 103/119/96 104/120/96
f 105/121/97 106/122/97 107/123/97 108/124/97
f 109/125/98 110/126/98 111/127/98 112/128/98
f 113/129/99 114/130/99 115/131/99 116/132/99
f 117/133/100 118/134/100 119/135/100 120/136/100
f 121/137/101 122/138/101 123/139/101 124/140/101
f 124/140/102 123/139/103 125/141/104 126/142/105
f 126/142/105 125/141/104 127/143/106 128/144/107
f 129/145/108 121/137/109 124/140/102 130/146/110
f 130/146/110 124/140/102 126/142/105 131/147/111
f 131/147/111 126/142/105 128/144/107 132/148/106
f 133/149/112 134/150/112 135/151/112 136/152/112
f 136/152/113 135/151/114 137/153/115 138/154/116
f 138/154/116 137/153/115 139/155/117 140/156/118
f 141/157/119 133/149/120 136/152/113 142/158/121
f 142/158/121 136/152/113 138/154/116 143/159/122
f 143/159/122 138/154/116 140/156/118 144/160/123
