# Blender v2.80 (sub 75) OBJ File: 'margaritas.blend'
# www.blender.org
mtllib aloevera3.mtl
o Stylizedplants_model.002
v -103.592598 5.122509 58.166302
v -101.514000 0.491210 56.789799
v -97.251198 2.954409 54.939400
v -99.329697 7.585710 56.315800
v -80.111298 7.061412 41.535099
v -80.284897 1.181512 43.416698
v -86.979897 1.842412 44.997398
v -86.806396 7.722412 43.115799
v -74.586304 2.317508 58.414200
v -76.159500 2.317509 53.572300
v -74.600502 12.157210 52.439606
v -72.659203 12.157209 58.414204
v -80.278198 2.317510 50.579899
v -79.682701 12.157211 48.747204
v -85.369202 2.317510 50.579899
v -85.964699 12.157211 48.747105
v -89.487900 2.317509 53.572300
v -91.046997 12.157210 52.439606
v -91.061096 2.317508 58.414200
v -92.988197 12.157209 58.414204
v -89.487900 2.317508 63.256001
v -91.046997 12.157208 64.388702
v -85.369202 2.317507 66.248398
v -85.964699 12.157207 68.081200
v -80.278198 2.317507 66.248398
v -79.682701 12.157207 68.081200
v -76.159500 2.317508 63.256001
v -74.600502 12.157208 64.388702
v -72.467201 12.157210 50.889706
v -71.913399 16.778711 50.487404
v -69.337799 16.778709 58.414204
v -70.022301 12.157209 58.414204
v -78.867897 12.157211 46.239304
v -78.656303 16.778711 45.588303
v -86.779602 12.157211 46.239304
v -86.991096 16.778711 45.588303
v -93.180199 12.157210 50.889706
v -93.733902 16.778711 50.487305
v -95.625099 12.157209 58.414303
v -96.309601 16.778709 58.414303
v -93.180199 12.157208 65.938599
v -93.734001 16.778708 66.341003
v -86.779503 12.157207 70.588997
v -86.991096 16.778708 71.239998
v -78.867897 12.157207 70.588997
v -78.656303 16.778708 71.239998
v -72.467201 12.157208 65.938599
v -71.913399 16.778708 66.341003
v -72.430000 14.571509 58.414204
v -74.415001 14.571510 52.304905
v -79.611900 14.571511 48.529102
v -86.035500 14.571511 48.529205
v -91.232300 14.571510 52.304802
v -93.217499 14.571509 58.414303
v -91.232399 14.571508 64.523399
v -86.035500 14.571507 68.299202
v -79.611900 14.571507 68.299202
v -74.415001 14.571508 64.523399
v -74.415001 16.778711 52.304905
v -72.430000 16.778709 58.414204
v -79.611900 16.778711 48.529102
v -86.035500 16.778711 48.529205
v -91.232300 16.778711 52.304802
v -93.217499 16.778709 58.414303
v -91.232399 16.778708 64.523399
v -86.035500 16.778708 68.299202
v -79.611900 16.778708 68.299202
v -74.415001 16.778708 64.523399
v -105.425102 2.312713 35.553299
v -105.425102 2.312706 80.743896
v -60.234501 2.312706 80.743896
v -60.234501 2.312713 35.553299
v -67.810204 12.383708 56.291805
v -67.810204 1.429909 56.291801
v -75.555702 1.429908 64.037399
v -75.555702 12.383707 64.037399
v -91.162804 12.212310 50.853203
v -91.162804 1.441711 50.853199
v -97.846497 1.441710 57.745602
v -97.846497 12.212309 57.745605
v -99.360397 8.783008 67.438904
v -99.360397 1.583607 67.438904
v -90.119400 1.583607 65.224899
v -90.119400 8.783009 65.224899
v -91.880653 36.483246 58.826530
v -91.880653 14.830868 58.826527
v -74.069458 14.830868 58.826527
v -74.069458 36.483246 58.826530
v -82.905685 36.617104 67.703346
v -82.906212 14.964724 67.692619
v -83.031067 14.973546 49.881878
v -83.030533 36.625923 49.892597
vt 0.012700 0.674300
vt 0.012700 0.531100
vt 0.155900 0.531100
vt 0.155900 0.674300
vt 0.012700 0.674300
vt 0.012700 0.531100
vt 0.155900 0.531100
vt 0.155900 0.674300
vt 0.665900 0.113100
vt 0.665900 0.143400
vt 0.615000 0.134100
vt 0.615000 0.098300
vt 0.665900 0.175000
vt 0.615000 0.170100
vt 0.665900 0.207300
vt 0.615000 0.206000
vt 0.665900 0.239500
vt 0.615000 0.242200
vt 0.665900 0.271400
vt 0.615000 0.278300
vt 0.665900 0.302300
vt 0.615000 0.314400
vt 0.665900 0.331200
vt 0.615000 0.350000
vt 0.665900 0.357400
vt 0.615000 0.382900
vt 0.665900 0.059400
vt 0.665900 0.084800
vt 0.615000 0.063300
vt 0.615000 0.031100
vt 0.601700 0.131800
vt 0.575100 0.127900
vt 0.575100 0.089700
vt 0.601700 0.094800
vt 0.601700 0.168700
vt 0.575100 0.166300
vt 0.601700 0.205700
vt 0.575100 0.205000
vt 0.601700 0.242800
vt 0.575100 0.243700
vt 0.601700 0.279900
vt 0.575100 0.282400
vt 0.601700 0.317200
vt 0.575100 0.321000
vt 0.601700 0.355100
vt 0.575100 0.360000
vt 0.601700 0.394400
vt 0.575100 0.402100
vt 0.601700 0.057500
vt 0.575100 0.051200
vt 0.575100 0.009600
vt 0.601700 0.018900
vt 0.474200 0.437800
vt 0.439600 0.426600
vt 0.418200 0.397200
vt 0.418200 0.360800
vt 0.439600 0.331400
vt 0.474200 0.320100
vt 0.508800 0.331400
vt 0.530200 0.360800
vt 0.530200 0.397200
vt 0.508800 0.426600
vt 0.557700 0.125800
vt 0.557700 0.087400
vt 0.557700 0.165000
vt 0.557700 0.204600
vt 0.557700 0.244300
vt 0.557700 0.283700
vt 0.557700 0.322500
vt 0.557700 0.360300
vt 0.557700 0.396600
vt 0.557700 0.050000
vt 0.557700 0.014100
vt 0.545700 0.124100
vt 0.545700 0.085300
vt 0.545700 0.163900
vt 0.545700 0.204300
vt 0.545700 0.244800
vt 0.545700 0.284800
vt 0.545700 0.323900
vt 0.545700 0.361100
vt 0.545700 0.396600
vt 0.545700 0.048600
vt 0.545700 0.013400
vt 0.220000 0.297100
vt 0.220000 0.012500
vt 0.504500 0.012500
vt 0.504500 0.297100
vt 0.012700 0.674300
vt 0.012700 0.531100
vt 0.155900 0.531100
vt 0.155900 0.674300
vt 0.012700 0.674300
vt 0.012700 0.531100
vt 0.155900 0.531100
vt 0.155900 0.674300
vt 0.012700 0.674300
vt 0.012700 0.531100
vt 0.155900 0.531100
vt 0.155900 0.674300
vt 0.696200 0.307400
vt 0.696200 0.005200
vt 0.998400 0.005200
vt 0.998400 0.307400
vt 0.696200 0.307400
vt 0.696200 0.005200
vt 0.998400 0.005200
vt 0.998400 0.307400
vn 0.4324 -0.0731 0.8987
vn -0.2469 -0.2887 -0.9250
vn 0.9350 -0.1831 -0.3038
vn 0.7939 -0.1922 -0.5768
vn 0.3033 -0.1922 -0.9333
vn 0.1691 -0.8370 -0.5204
vn 0.4427 -0.8370 -0.3216
vn -0.3033 -0.1922 -0.9333
vn -0.1691 -0.8370 -0.5204
vn -0.7939 -0.1922 -0.5768
vn -0.4427 -0.8370 -0.3216
vn -0.9814 -0.1922 0.0000
vn -0.5472 -0.8370 0.0000
vn -0.7939 -0.1922 0.5768
vn -0.4427 -0.8370 0.3216
vn -0.3033 -0.1922 0.9333
vn -0.1691 -0.8370 0.5204
vn 0.3033 -0.1922 0.9333
vn 0.1691 -0.8370 0.5204
vn 0.7939 -0.1922 0.5768
vn 0.4427 -0.8370 0.3216
vn 0.9814 -0.1922 0.0000
vn 0.5472 -0.8370 0.0000
vn 0.5796 -0.6977 -0.4211
vn 0.6545 0.5878 -0.4755
vn 0.8090 0.5878 0.0000
vn 0.7164 -0.6977 0.0000
vn 0.2214 -0.6977 -0.6814
vn 0.2500 0.5878 -0.7694
vn -0.2214 -0.6977 -0.6814
vn -0.2500 0.5878 -0.7694
vn -0.5796 -0.6977 -0.4211
vn -0.6545 0.5878 -0.4755
vn -0.7164 -0.6977 0.0000
vn -0.8090 0.5878 0.0000
vn -0.5796 -0.6977 0.4211
vn -0.6545 0.5878 0.4755
vn -0.2214 -0.6977 0.6814
vn -0.2500 0.5878 0.7694
vn 0.2214 -0.6977 0.6814
vn 0.2500 0.5878 0.7694
vn 0.5796 -0.6977 0.4211
vn 0.6545 0.5878 0.4755
vn -0.7653 0.6437 -0.0000
vn -0.6191 0.6437 0.4498
vn -0.2365 0.6437 0.7278
vn 0.2365 0.6437 0.7278
vn 0.6191 0.6437 0.4498
vn 0.7653 0.6437 -0.0000
vn 0.6191 0.6437 -0.4498
vn 0.2365 0.6437 -0.7278
vn -0.2365 0.6437 -0.7278
vn -0.6191 0.6437 -0.4498
vn -0.5025 0.7837 0.3651
vn -0.6211 0.7837 -0.0000
vn -0.1919 0.7837 0.5907
vn 0.1919 0.7837 0.5907
vn 0.5025 0.7837 0.3651
vn 0.6211 0.7837 -0.0000
vn 0.5025 0.7837 -0.3651
vn 0.1919 0.7837 -0.5907
vn -0.1919 0.7837 -0.5907
vn -0.5025 0.7837 -0.3651
vn 0.0000 1.0000 0.0000
vn -0.7071 0.0000 -0.7071
vn -0.7179 0.0000 -0.6962
vn 0.2330 0.0000 0.9725
vn 0.0000 -0.0000 1.0000
vn 1.0000 -0.0000 -0.0070
usemtl plants_model:Plane043SG.006
s 1
f 1/1/1 2/2/1 3/3/1 4/4/1
f 5/5/2 6/6/2 7/7/2 8/8/2
f 9/9/3 10/10/3 11/11/3 12/12/3
f 10/10/4 13/13/5 14/14/6 11/11/7
f 13/13/5 15/15/8 16/16/9 14/14/6
f 15/15/8 17/17/10 18/18/11 16/16/9
f 17/17/10 19/19/12 20/20/13 18/18/11
f 19/19/12 21/21/14 22/22/15 20/20/13
f 21/21/14 23/23/16 24/24/17 22/22/15
f 23/23/16 25/25/18 26/26/19 24/24/17
f 25/27/18 27/28/20 28/29/21 26/30/19
f 27/28/20 9/9/22 12/12/23 28/29/21
f 29/31/24 30/32/25 31/33/26 32/34/27
f 33/35/28 34/36/29 30/32/25 29/31/24
f 35/37/30 36/38/31 34/36/29 33/35/28
f 37/39/32 38/40/33 36/38/31 35/37/30
f 39/41/34 40/42/35 38/40/33 37/39/32
f 41/43/36 42/44/37 40/42/35 39/41/34
f 43/45/38 44/46/39 42/44/37 41/43/36
f 45/47/40 46/48/41 44/46/39 43/45/38
f 47/49/42 48/50/43 46/51/41 45/52/40
f 32/34/27 31/33/26 48/50/43 47/49/42
f 49/53/44 50/54/45 51/55/46 52/56/47 53/57/48 54/58/49 55/59/50 56/60/51 57/61/52 58/62/53
f 12/12/23 11/11/7 29/31/24 32/34/27
f 11/11/7 14/14/6 33/35/28 29/31/24
f 14/14/6 16/16/9 35/37/30 33/35/28
f 16/16/9 18/18/11 37/39/32 35/37/30
f 18/18/11 20/20/13 39/41/34 37/39/32
f 20/20/13 22/22/15 41/43/36 39/41/34
f 22/22/15 24/24/17 43/45/38 41/43/36
f 24/24/17 26/26/19 45/47/40 43/45/38
f 26/30/19 28/29/21 47/49/42 45/52/40
f 28/29/21 12/12/23 32/34/27 47/49/42
f 31/33/26 30/32/25 59/63/54 60/64/55
f 30/32/25 34/36/29 61/65/56 59/63/54
f 34/36/29 36/38/31 62/66/57 61/65/56
f 36/38/31 38/40/33 63/67/58 62/66/57
f 38/40/33 40/42/35 64/68/59 63/67/58
f 40/42/35 42/44/37 65/69/60 64/68/59
f 42/44/37 44/46/39 66/70/61 65/69/60
f 44/46/39 46/48/41 67/71/62 66/70/61
f 46/51/41 48/50/43 68/72/63 67/73/62
f 48/50/43 31/33/26 60/64/55 68/72/63
f 60/64/55 59/63/54 50/74/45 49/75/44
f 59/63/54 61/65/56 51/76/46 50/74/45
f 61/65/56 62/66/57 52/77/47 51/76/46
f 62/66/57 63/67/58 53/78/48 52/77/47
f 63/67/58 64/68/59 54/79/49 53/78/48
f 64/68/59 65/69/60 55/80/50 54/79/49
f 65/69/60 66/70/61 56/81/51 55/80/50
f 66/70/61 67/71/62 57/82/52 56/81/51
f 67/73/62 68/72/63 58/83/53 57/84/52
f 68/72/63 60/64/55 49/75/44 58/83/53
f 69/85/64 70/86/64 71/87/64 72/88/64
f 73/89/65 74/90/65 75/91/65 76/92/65
f 77/93/66 78/94/66 79/95/66 80/96/66
f 81/97/67 82/98/67 83/99/67 84/100/67
f 85/101/68 86/102/68 87/103/68 88/104/68
f 89/105/69 90/106/69 91/107/69 92/108/69
