# Blender v2.80 (sub 75) OBJ File: 'margaritas.blend'
# www.blender.org
mtllib hojasalargadas2.mtl
o Stylizedplants_model
v 71.100098 12.212310 50.853203
v 71.100098 1.441711 50.853199
v 64.416397 1.441710 57.745602
v 64.416397 12.212309 57.745605
v 62.902500 8.783008 67.438904
v 62.902500 1.583607 67.438904
v 72.143501 1.583607 65.224899
v 72.143501 8.783009 65.224899
v 78.818283 26.984722 45.427235
v 79.019279 26.342758 47.412426
v 73.275795 25.996342 47.564007
v 73.074760 26.638306 45.578869
v 79.587944 20.072422 50.306747
v 73.832054 19.811039 50.356815
v 73.078094 21.288393 43.691944
v 78.826141 21.603313 43.571583
v 74.997101 22.546310 46.902805
v 76.774101 21.781811 49.368305
v 69.313301 21.369209 53.942406
v 67.536301 22.133812 51.476902
v 79.728401 14.314310 52.753105
v 72.174103 14.003010 57.202705
v 66.103699 15.762411 48.985302
v 73.594299 16.137512 44.449005
v 68.925003 22.546309 55.996304
v 71.661598 21.781809 54.674404
v 74.870697 21.369209 62.816105
v 72.134102 22.133810 64.138000
v 75.508102 14.314310 52.352703
v 78.578300 14.003010 60.565002
v 69.431602 15.762408 65.116203
v 66.264900 16.137510 56.951702
v 68.471443 26.712311 51.776894
v 71.141640 26.121895 51.973831
v 70.003654 25.803291 59.599110
v 67.333458 26.393707 59.402172
v 75.098961 20.355045 51.896786
v 73.823944 20.114647 59.514786
v 64.840752 21.473377 58.958099
v 66.021042 21.763010 51.334045
v 69.747261 26.759811 61.296036
v 71.952461 26.160406 59.706673
v 76.043495 25.836952 66.379578
v 73.838364 26.436357 67.968880
v 74.979797 20.305759 57.064308
v 78.959518 20.061705 63.820892
v 71.609962 21.441118 69.250175
v 67.552628 21.735161 62.550694
v 73.107697 22.546309 62.768604
v 74.354401 21.781809 59.996902
v 82.046097 21.369209 64.170998
v 80.799400 22.133808 66.942703
v 75.808601 14.314309 55.745903
v 83.439301 14.003010 60.063404
v 79.358002 15.762407 69.429100
v 71.684097 16.137508 65.210297
v 85.627922 25.944244 66.993187
v 83.334709 25.364834 65.710632
v 87.509369 25.052174 59.400532
v 89.802582 25.631584 60.683147
v 79.783043 19.705486 64.137840
v 84.076553 19.469572 57.891144
v 91.835449 20.802973 62.111916
v 87.623688 21.087202 68.403328
v 85.278900 21.921211 50.236504
v 84.278503 21.156609 53.106304
v 76.252296 20.744112 49.618404
v 77.252701 21.508711 46.748604
v 83.200302 13.689210 57.467804
v 75.222397 13.377911 53.831802
v 78.471901 15.137311 44.146004
v 86.484299 15.512411 47.679905
v 87.851601 21.921209 61.917103
v 84.812698 21.156609 61.958603
v 85.345200 20.744110 53.223503
v 88.384102 21.508709 53.182003
v 80.345497 13.689209 62.437202
v 81.033600 13.377911 53.696804
v 91.246696 15.137310 53.437603
v 90.666298 15.512408 62.175404
v 89.225990 26.095438 53.722252
v 87.138191 25.487419 55.523270
v 82.414177 25.159321 49.141941
v 84.502045 25.767340 47.340923
v 84.312607 19.548624 58.461048
v 79.693710 19.301064 51.985317
v 86.640549 20.700304 45.849171
v 91.332832 20.998571 52.260403
v 82.151604 7.061412 41.535099
v 81.978104 1.181512 43.416698
v 75.282997 1.842412 44.997398
v 75.456497 7.722412 43.115799
v 94.452698 12.383708 56.291805
v 94.452698 1.429909 56.291801
v 86.707199 1.429908 64.037399
v 86.707199 12.383707 64.037399
v 87.676598 2.317508 58.414200
v 86.103401 2.317509 53.572300
v 87.662498 12.157210 52.439606
v 89.603699 12.157209 58.414204
v 81.984703 2.317510 50.579899
v 82.580200 12.157211 48.747204
v 76.893700 2.317510 50.579899
v 76.298203 12.157211 48.747105
v 72.775002 2.317509 53.572300
v 71.215897 12.157210 52.439606
v 71.201797 2.317508 58.414200
v 69.274696 12.157209 58.414204
v 72.775002 2.317508 63.256001
v 71.215897 12.157208 64.388702
v 76.893700 2.317507 66.248398
v 76.298203 12.157207 68.081200
v 81.984703 2.317507 66.248398
v 82.580200 12.157207 68.081200
v 86.103401 2.317508 63.256001
v 87.662498 12.157208 64.388702
v 89.795700 12.157210 50.889706
v 90.349503 16.778711 50.487404
v 92.925102 16.778709 58.414204
v 92.240601 12.157209 58.414204
v 83.394997 12.157211 46.239304
v 83.606598 16.778711 45.588303
v 75.483398 12.157211 46.239304
v 75.271797 16.778711 45.588303
v 69.082802 12.157210 50.889706
v 68.528999 16.778711 50.487305
v 66.637802 12.157209 58.414303
v 65.953300 16.778709 58.414303
v 69.082703 12.157208 65.938599
v 68.528900 16.778708 66.341003
v 75.483398 12.157207 70.588997
v 75.271797 16.778708 71.239998
v 83.394997 12.157207 70.588997
v 83.606598 16.778708 71.239998
v 89.795700 12.157208 65.938599
v 90.349503 16.778708 66.341003
v 89.832901 14.571509 58.414204
v 87.847900 14.571510 52.304905
v 82.651001 14.571511 48.529102
v 76.227402 14.571511 48.529205
v 71.030602 14.571510 52.304802
v 69.045403 14.571509 58.414303
v 71.030502 14.571508 64.523399
v 76.227402 14.571507 68.299202
v 82.651001 14.571507 68.299202
v 87.847900 14.571508 64.523399
v 87.847900 16.778711 52.304905
v 89.832901 16.778709 58.414204
v 82.651001 16.778711 48.529102
v 76.227402 16.778711 48.529205
v 71.030602 16.778711 52.304802
v 69.045403 16.778709 58.414303
v 71.030502 16.778708 64.523399
v 76.227402 16.778708 68.299202
v 82.651001 16.778708 68.299202
v 87.847900 16.778708 64.523399
v 56.837799 2.312713 35.553299
v 56.837799 2.312706 80.743896
v 102.028397 2.312706 80.743896
v 102.028397 2.312713 35.553299
v 58.670300 5.122509 58.166302
v 60.748901 0.491210 56.789799
v 65.011703 2.954409 54.939400
v 62.933201 7.585710 56.315800
vt 0.012700 0.674300
vt 0.012700 0.531100
vt 0.155900 0.531100
vt 0.155900 0.674300
vt 0.012700 0.674300
vt 0.012700 0.531100
vt 0.155900 0.531100
vt 0.155900 0.674300
vt 0.818400 0.855900
vt 0.818400 0.717900
vt 1.000000 0.716700
vt 1.000000 0.854700
vt 0.818400 0.579900
vt 1.000000 0.578700
vt 1.000000 0.992700
vt 0.818400 0.993900
vt 0.818400 0.855900
vt 0.818400 0.717900
vt 1.000000 0.716700
vt 1.000000 0.854700
vt 0.818400 0.579900
vt 1.000000 0.578700
vt 1.000000 0.992700
vt 0.818400 0.993900
vt 0.818400 0.855900
vt 0.818400 0.717900
vt 1.000000 0.716700
vt 1.000000 0.854700
vt 0.818400 0.579900
vt 1.000000 0.578700
vt 1.000000 0.992700
vt 0.818400 0.993900
vt 0.818400 0.855900
vt 0.818400 0.717900
vt 1.000000 0.716700
vt 1.000000 0.854700
vt 0.818400 0.579900
vt 1.000000 0.578700
vt 1.000000 0.992700
vt 0.818400 0.993900
vt 0.818400 0.855900
vt 0.818400 0.717900
vt 1.000000 0.716700
vt 1.000000 0.854700
vt 0.818400 0.579900
vt 1.000000 0.578700
vt 1.000000 0.992700
vt 0.818400 0.993900
vt 0.818400 0.855900
vt 0.818400 0.717900
vt 1.000000 0.716700
vt 1.000000 0.854700
vt 0.818400 0.579900
vt 1.000000 0.578700
vt 1.000000 0.992700
vt 0.818400 0.993900
vt 0.818400 0.855900
vt 0.818400 0.717900
vt 1.000000 0.716700
vt 1.000000 0.854700
vt 0.818400 0.579900
vt 1.000000 0.578700
vt 1.000000 0.992700
vt 0.818400 0.993900
vt 0.818400 0.855900
vt 0.818400 0.717900
vt 1.000000 0.716700
vt 1.000000 0.854700
vt 0.818400 0.579900
vt 1.000000 0.578700
vt 1.000000 0.992700
vt 0.818400 0.993900
vt 0.818400 0.855900
vt 0.818400 0.717900
vt 1.000000 0.716700
vt 1.000000 0.854700
vt 0.818400 0.579900
vt 1.000000 0.578700
vt 1.000000 0.992700
vt 0.818400 0.993900
vt 0.818400 0.855900
vt 0.818400 0.717900
vt 1.000000 0.716700
vt 1.000000 0.854700
vt 0.818400 0.579900
vt 1.000000 0.578700
vt 1.000000 0.992700
vt 0.818400 0.993900
vt 0.012700 0.674300
vt 0.012700 0.531100
vt 0.155900 0.531100
vt 0.155900 0.674300
vt 0.012700 0.674300
vt 0.012700 0.531100
vt 0.155900 0.531100
vt 0.155900 0.674300
vt 0.665900 0.113100
vt 0.665900 0.143400
vt 0.615000 0.134100
vt 0.615000 0.098300
vt 0.665900 0.175000
vt 0.615000 0.170100
vt 0.665900 0.207300
vt 0.615000 0.206000
vt 0.665900 0.239500
vt 0.615000 0.242200
vt 0.665900 0.271400
vt 0.615000 0.278300
vt 0.665900 0.302300
vt 0.615000 0.314400
vt 0.665900 0.331200
vt 0.615000 0.350000
vt 0.665900 0.357400
vt 0.615000 0.382900
vt 0.665900 0.059400
vt 0.665900 0.084800
vt 0.615000 0.063300
vt 0.615000 0.031100
vt 0.601700 0.131800
vt 0.575100 0.127900
vt 0.575100 0.089700
vt 0.601700 0.094800
vt 0.601700 0.168700
vt 0.575100 0.166300
vt 0.601700 0.205700
vt 0.575100 0.205000
vt 0.601700 0.242800
vt 0.575100 0.243700
vt 0.601700 0.279900
vt 0.575100 0.282400
vt 0.601700 0.317200
vt 0.575100 0.321000
vt 0.601700 0.355100
vt 0.575100 0.360000
vt 0.601700 0.394400
vt 0.575100 0.402100
vt 0.601700 0.057500
vt 0.575100 0.051200
vt 0.575100 0.009600
vt 0.601700 0.018900
vt 0.474200 0.437800
vt 0.439600 0.426600
vt 0.418200 0.397200
vt 0.418200 0.360800
vt 0.439600 0.331400
vt 0.474200 0.320100
vt 0.508800 0.331400
vt 0.530200 0.360800
vt 0.530200 0.397200
vt 0.508800 0.426600
vt 0.557700 0.125800
vt 0.557700 0.087400
vt 0.557700 0.165000
vt 0.557700 0.204600
vt 0.557700 0.244300
vt 0.557700 0.283700
vt 0.557700 0.322500
vt 0.557700 0.360300
vt 0.557700 0.396600
vt 0.557700 0.050000
vt 0.557700 0.014100
vt 0.545700 0.124100
vt 0.545700 0.085300
vt 0.545700 0.163900
vt 0.545700 0.204300
vt 0.545700 0.244800
vt 0.545700 0.284800
vt 0.545700 0.323900
vt 0.545700 0.361100
vt 0.545700 0.396600
vt 0.545700 0.048600
vt 0.545700 0.013400
vt 0.220000 0.297100
vt 0.220000 0.012500
vt 0.504500 0.012500
vt 0.504500 0.297100
vt 0.012700 0.674300
vt 0.012700 0.531100
vt 0.155900 0.531100
vt 0.155900 0.674300
vn -0.7179 0.0000 -0.6962
vn 0.2330 0.0000 0.9725
vn 0.0490 -0.9489 -0.3118
vn 0.1296 -0.6697 -0.7312
vn 0.0833 -0.3360 -0.9382
vn 0.0808 -0.3266 -0.9417
vn 0.1311 -0.6668 -0.7336
vn 0.1700 -0.7574 0.6304
vn 0.0865 -0.2606 0.9616
vn 0.0855 -0.2532 0.9636
vn 0.1825 -0.8736 0.4510
vn -0.0905 -0.9678 -0.2349
vn -0.2050 -0.7776 -0.5944
vn -0.3758 -0.4811 -0.7920
vn -0.3792 -0.4730 -0.7953
vn -0.2066 -0.7757 -0.5964
vn 0.3896 -0.8394 0.3789
vn 0.5249 -0.3896 0.7567
vn 0.5255 -0.3823 0.7601
vn 0.3036 -0.9303 0.2058
vn -0.2470 -0.9678 0.0483
vn -0.6210 -0.7776 0.0987
vn -0.8452 -0.4811 0.2325
vn -0.8490 -0.4730 0.2353
vn -0.6232 -0.7756 0.0999
vn 0.4408 -0.8394 -0.3179
vn 0.8364 -0.3896 -0.3856
vn 0.8398 -0.3823 -0.3856
vn 0.2554 -0.9303 -0.2633
vn -0.2103 -0.9750 -0.0721
vn -0.5843 -0.7747 -0.2418
vn -0.8465 -0.4793 -0.2316
vn -0.8512 -0.4713 -0.2309
vn -0.5868 -0.7728 -0.2418
vn 0.5436 -0.8362 -0.0730
vn 0.9185 -0.3881 0.0759
vn 0.9214 -0.3808 0.0777
vn 0.3562 -0.9266 -0.1204
vn -0.2074 -0.9750 0.0799
vn -0.6030 -0.7747 0.1903
vn -0.7973 -0.4793 0.3667
vn -0.8005 -0.4713 0.3702
vn -0.6050 -0.7728 0.1919
vn 0.3695 -0.8362 -0.4053
vn 0.7524 -0.3881 -0.5323
vn 0.7558 -0.3808 -0.5327
vn 0.1955 -0.9266 -0.3212
vn -0.1582 -0.9678 0.1958
vn -0.4122 -0.7776 0.4747
vn -0.4980 -0.4811 0.7214
vn -0.4991 -0.4730 0.7260
vn -0.4132 -0.7756 0.4771
vn 0.1334 -0.8395 -0.5268
vn 0.3929 -0.3895 -0.8330
vn 0.3956 -0.3823 -0.8351
vn 0.0265 -0.9303 -0.3659
vn 0.1601 -0.9750 0.1542
vn 0.4273 -0.7747 0.4661
vn 0.6693 -0.4793 0.5677
vn 0.6739 -0.4713 0.5690
vn 0.4297 -0.7728 0.4671
vn -0.5235 -0.8362 -0.1636
vn -0.8003 -0.3881 -0.4570
vn -0.8022 -0.3808 -0.4599
vn -0.3737 -0.9266 -0.0414
vn 0.1405 -0.9678 -0.2089
vn 0.3693 -0.7776 -0.5089
vn 0.4332 -0.4811 -0.7621
vn 0.4339 -0.4730 -0.7668
vn 0.3700 -0.7756 -0.5113
vn -0.0869 -0.8395 0.5364
vn -0.3188 -0.3896 0.8641
vn -0.3212 -0.3823 0.8664
vn 0.0055 -0.9303 0.3668
vn 0.2443 -0.9678 0.0606
vn 0.6046 -0.7775 0.1730
vn 0.8643 -0.4811 0.1465
vn 0.8689 -0.4730 0.1455
vn 0.6070 -0.7756 0.1728
vn -0.5338 -0.8395 0.1018
vn -0.9210 -0.3896 -0.0041
vn -0.9240 -0.3822 -0.0055
vn -0.3428 -0.9303 0.1306
vn 0.1997 -0.9750 -0.0977
vn 0.5841 -0.7747 -0.2422
vn 0.7623 -0.4793 -0.4348
vn 0.7652 -0.4713 -0.4386
vn 0.5859 -0.7728 -0.2439
vn -0.3328 -0.8362 0.4360
vn -0.7031 -0.3882 0.5958
vn -0.7065 -0.3808 0.5965
vn -0.1668 -0.9266 0.3369
vn -0.2469 -0.2887 -0.9250
vn -0.7071 0.0000 -0.7071
vn 0.9350 -0.1831 -0.3038
vn 0.7939 -0.1922 -0.5768
vn 0.3033 -0.1922 -0.9333
vn 0.1691 -0.8370 -0.5204
vn 0.4427 -0.8370 -0.3216
vn -0.3033 -0.1922 -0.9333
vn -0.1691 -0.8370 -0.5204
vn -0.7939 -0.1922 -0.5768
vn -0.4427 -0.8370 -0.3216
vn -0.9814 -0.1922 0.0000
vn -0.5472 -0.8370 0.0000
vn -0.7939 -0.1922 0.5768
vn -0.4427 -0.8370 0.3216
vn -0.3033 -0.1922 0.9333
vn -0.1691 -0.8370 0.5204
vn 0.3033 -0.1922 0.9333
vn 0.1691 -0.8370 0.5204
vn 0.7939 -0.1922 0.5768
vn 0.4427 -0.8370 0.3216
vn 0.9814 -0.1922 -0.0000
vn 0.5472 -0.8370 0.0000
vn 0.5796 -0.6977 -0.4211
vn 0.6545 0.5878 -0.4755
vn 0.8090 0.5878 0.0000
vn 0.7164 -0.6977 0.0000
vn 0.2214 -0.6977 -0.6814
vn 0.2500 0.5878 -0.7694
vn -0.2214 -0.6977 -0.6814
vn -0.2500 0.5878 -0.7694
vn -0.5796 -0.6977 -0.4211
vn -0.6545 0.5878 -0.4755
vn -0.7164 -0.6977 -0.0000
vn -0.8090 0.5878 -0.0000
vn -0.5796 -0.6977 0.4211
vn -0.6545 0.5878 0.4755
vn -0.2214 -0.6977 0.6814
vn -0.2500 0.5878 0.7694
vn 0.2214 -0.6977 0.6814
vn 0.2500 0.5878 0.7694
vn 0.5796 -0.6977 0.4211
vn 0.6545 0.5878 0.4755
vn -0.7653 0.6437 -0.0000
vn -0.6191 0.6437 0.4498
vn -0.2365 0.6437 0.7278
vn 0.2365 0.6437 0.7278
vn 0.6191 0.6437 0.4498
vn 0.7653 0.6437 -0.0000
vn 0.6191 0.6437 -0.4498
vn 0.2365 0.6437 -0.7278
vn -0.2365 0.6437 -0.7278
vn -0.6191 0.6437 -0.4498
vn -0.5025 0.7837 0.3651
vn -0.6211 0.7837 -0.0000
vn -0.1919 0.7837 0.5907
vn 0.1919 0.7837 0.5907
vn 0.5025 0.7837 0.3651
vn 0.6211 0.7837 -0.0000
vn 0.5025 0.7837 -0.3651
vn 0.1919 0.7837 -0.5907
vn -0.1919 0.7837 -0.5907
vn -0.5025 0.7837 -0.3651
vn 0.0000 1.0000 0.0000
vn 0.4324 -0.0731 0.8987
usemtl plants_model:Plane043SG.004
s 1
f 1/1/1 2/2/1 3/3/1 4/4/1
f 5/5/2 6/6/2 7/7/2 8/8/2
f 9/9/3 10/10/3 11/11/3 12/12/3
f 10/10/4 13/13/5 14/14/6 11/11/7
f 12/12/8 15/15/9 16/16/10 9/9/11
f 17/17/12 18/18/12 19/19/12 20/20/12
f 18/18/13 21/21/14 22/22/15 19/19/16
f 20/20/17 23/23/18 24/24/19 17/17/20
f 25/25/21 26/26/21 27/27/21 28/28/21
f 26/26/22 29/29/23 30/30/24 27/27/25
f 28/28/26 31/31/27 32/32/28 25/25/29
f 33/33/30 34/34/30 35/35/30 36/36/30
f 34/34/31 37/37/32 38/38/33 35/35/34
f 36/36/35 39/39/36 40/40/37 33/33/38
f 41/41/39 42/42/39 43/43/39 44/44/39
f 42/42/40 45/45/41 46/46/42 43/43/43
f 44/44/44 47/47/45 48/48/46 41/41/47
f 49/49/48 50/50/48 51/51/48 52/52/48
f 50/50/49 53/53/50 54/54/51 51/51/52
f 52/52/53 55/55/54 56/56/55 49/49/56
f 57/57/57 58/58/57 59/59/57 60/60/57
f 58/58/58 61/61/59 62/62/60 59/59/61
f 60/60/62 63/63/63 64/64/64 57/57/65
f 65/65/66 66/66/66 67/67/66 68/68/66
f 66/66/67 69/69/68 70/70/69 67/67/70
f 68/68/71 71/71/72 72/72/73 65/65/74
f 73/73/75 74/74/75 75/75/75 76/76/75
f 74/74/76 77/77/77 78/78/78 75/75/79
f 76/76/80 79/79/81 80/80/82 73/73/83
f 81/81/84 82/82/84 83/83/84 84/84/84
f 82/82/85 85/85/86 86/86/87 83/83/88
f 84/84/89 87/87/90 88/88/91 81/81/92
f 89/89/93 90/90/93 91/91/93 92/92/93
f 93/93/94 94/94/94 95/95/94 96/96/94
f 97/97/95 98/98/95 99/99/95 100/100/95
f 98/98/96 101/101/97 102/102/98 99/99/99
f 101/101/97 103/103/100 104/104/101 102/102/98
f 103/103/100 105/105/102 106/106/103 104/104/101
f 105/105/102 107/107/104 108/108/105 106/106/103
f 107/107/104 109/109/106 110/110/107 108/108/105
f 109/109/106 111/111/108 112/112/109 110/110/107
f 111/111/108 113/113/110 114/114/111 112/112/109
f 113/115/110 115/116/112 116/117/113 114/118/111
f 115/116/112 97/97/114 100/100/115 116/117/113
f 117/119/116 118/120/117 119/121/118 120/122/119
f 121/123/120 122/124/121 118/120/117 117/119/116
f 123/125/122 124/126/123 122/124/121 121/123/120
f 125/127/124 126/128/125 124/126/123 123/125/122
f 127/129/126 128/130/127 126/128/125 125/127/124
f 129/131/128 130/132/129 128/130/127 127/129/126
f 131/133/130 132/134/131 130/132/129 129/131/128
f 133/135/132 134/136/133 132/134/131 131/133/130
f 135/137/134 136/138/135 134/139/133 133/140/132
f 120/122/119 119/121/118 136/138/135 135/137/134
f 137/141/136 138/142/137 139/143/138 140/144/139 141/145/140 142/146/141 143/147/142 144/148/143 145/149/144 146/150/145
f 100/100/115 99/99/99 117/119/116 120/122/119
f 99/99/99 102/102/98 121/123/120 117/119/116
f 102/102/98 104/104/101 123/125/122 121/123/120
f 104/104/101 106/106/103 125/127/124 123/125/122
f 106/106/103 108/108/105 127/129/126 125/127/124
f 108/108/105 110/110/107 129/131/128 127/129/126
f 110/110/107 112/112/109 131/133/130 129/131/128
f 112/112/109 114/114/111 133/135/132 131/133/130
f 114/118/111 116/117/113 135/137/134 133/140/132
f 116/117/113 100/100/115 120/122/119 135/137/134
f 119/121/118 118/120/117 147/151/146 148/152/147
f 118/120/117 122/124/121 149/153/148 147/151/146
f 122/124/121 124/126/123 150/154/149 149/153/148
f 124/126/123 126/128/125 151/155/150 150/154/149
f 126/128/125 128/130/127 152/156/151 151/155/150
f 128/130/127 130/132/129 153/157/152 152/156/151
f 130/132/129 132/134/131 154/158/153 153/157/152
f 132/134/131 134/136/133 155/159/154 154/158/153
f 134/139/133 136/138/135 156/160/155 155/161/154
f 136/138/135 119/121/118 148/152/147 156/160/155
f 148/152/147 147/151/146 138/162/137 137/163/136
f 147/151/146 149/153/148 139/164/138 138/162/137
f 149/153/148 150/154/149 140/165/139 139/164/138
f 150/154/149 151/155/150 141/166/140 140/165/139
f 151/155/150 152/156/151 142/167/141 141/166/140
f 152/156/151 153/157/152 143/168/142 142/167/141
f 153/157/152 154/158/153 144/169/143 143/168/142
f 154/158/153 155/159/154 145/170/144 144/169/143
f 155/161/154 156/160/155 146/171/145 145/172/144
f 156/160/155 148/152/147 137/163/136 146/171/145
f 157/173/156 158/174/156 159/175/156 160/176/156
f 161/177/157 162/178/157 163/179/157 164/180/157
