# Blender v2.80 (sub 75) OBJ File: ''
# www.blender.org
mtllib elote2.mtl
o Stylizedplants_model
v -52.784801 2.312713 35.553299
v -52.784801 2.312706 80.743896
v -7.594200 2.312706 80.743896
v -7.594200 2.312713 35.553299
v -15.169900 12.383708 56.291805
v -15.169900 1.429909 56.291801
v -22.915400 1.429908 64.037399
v -22.915400 12.383707 64.037399
v -25.372400 31.739708 60.964203
v -16.712900 38.231106 59.106609
v -18.101200 37.879013 51.404606
v -26.760700 31.387609 53.262203
v -8.964500 34.321510 58.060204
v -10.352700 33.969410 50.358204
v -31.564301 20.113010 54.643505
v -30.176001 20.465109 62.345505
v -34.497101 76.367012 59.665913
v -38.681599 81.360710 65.042618
v -34.055000 81.089912 68.894913
v -29.870501 76.096115 63.518211
v -42.730301 78.353111 69.490715
v -38.103699 78.082298 73.343018
v -27.722700 67.422913 60.329010
v -32.349300 67.693710 56.476711
v -21.945999 2.317508 58.414200
v -23.519199 2.317509 53.572300
v -21.960100 12.157210 52.439606
v -20.018900 12.157209 58.414204
v -27.637899 2.317510 50.579899
v -27.042400 12.157211 48.747204
v -32.728901 2.317510 50.579899
v -33.324402 12.157211 48.747105
v -36.847599 2.317509 53.572300
v -38.406601 12.157210 52.439606
v -38.420799 2.317508 58.414200
v -40.347900 12.157209 58.414204
v -36.847599 2.317508 63.256001
v -38.406601 12.157208 64.388702
v -32.728901 2.317507 66.248398
v -33.324402 12.157207 68.081200
v -27.637899 2.317507 66.248398
v -27.042400 12.157207 68.081200
v -23.519199 2.317508 63.256001
v -21.960100 12.157208 64.388702
v -19.826900 12.157210 50.889706
v -19.273100 16.778711 50.487404
v -16.697500 16.778709 58.414204
v -17.382000 12.157209 58.414204
v -26.227600 12.157211 46.239304
v -26.016001 16.778711 45.588303
v -34.139198 12.157211 46.239304
v -34.350800 16.778711 45.588303
v -40.539799 12.157210 50.889706
v -41.093601 16.778711 50.487305
v -42.984798 12.157209 58.414303
v -43.669300 16.778709 58.414303
v -40.539902 12.157208 65.938599
v -41.093700 16.778708 66.341003
v -34.139198 12.157207 70.588997
v -34.350800 16.778708 71.239998
v -26.227501 12.157207 70.588997
v -26.016001 16.778708 71.239998
v -19.826900 12.157208 65.938599
v -19.273100 16.778708 66.341003
v -19.789700 14.571509 58.414204
v -21.774700 14.571510 52.304905
v -26.971600 14.571511 48.529102
v -33.395199 14.571511 48.529205
v -38.591999 14.571510 52.304802
v -40.577099 14.571509 58.414303
v -38.592098 14.571508 64.523399
v -33.395199 14.571507 68.299202
v -26.971500 14.571507 68.299202
v -21.774700 14.571508 64.523399
v -21.774700 16.778711 52.304905
v -19.789700 16.778709 58.414204
v -26.971600 16.778711 48.529102
v -33.395199 16.778711 48.529205
v -38.591999 16.778711 52.304802
v -40.577099 16.778709 58.414303
v -38.592098 16.778708 64.523399
v -33.395199 16.778708 68.299202
v -26.971500 16.778708 68.299202
v -21.774700 16.778708 64.523399
v -29.396799 14.816509 58.850403
v -29.880199 14.816509 58.185005
v -29.880199 77.574707 58.185013
v -29.396799 77.574707 58.850410
v -30.662500 14.816509 58.439205
v -30.662500 77.574707 58.439213
v -30.662500 14.816509 59.261604
v -30.662500 77.574707 59.261612
v -29.880199 14.816509 59.515804
v -29.880199 77.574707 59.515812
v -29.965300 80.509613 58.446712
v -29.672001 80.509613 58.850410
v -30.439899 80.509613 58.600910
v -30.439899 80.509613 59.099911
v -29.965300 80.509613 59.254112
v -35.126099 57.970608 60.387508
v -39.327999 62.693207 65.990807
v -34.496399 62.718109 69.592911
v -30.294600 57.995506 63.989609
v -42.937901 59.438507 70.638206
v -38.106400 59.463406 74.240311
v -27.774401 49.473408 60.668308
v -32.605900 49.448414 57.066208
v -31.900499 81.950012 59.200310
v -33.982300 83.520714 60.453217
v -32.582600 84.376816 61.705616
v -30.500799 82.806107 60.452717
v -35.073399 82.573410 62.246914
v -33.673698 83.429611 63.499313
v -28.717600 80.093216 60.314312
v -30.117300 79.237015 59.061913
v -26.628401 49.234112 55.474007
v -26.702499 51.011311 51.233009
v -31.586800 52.083611 52.133408
v -31.512800 50.306412 56.374508
v -28.014299 48.051712 47.362209
v -32.898701 49.124012 48.262608
v -32.540100 43.011108 59.490108
v -27.655701 41.938709 58.589607
v -28.139000 68.437210 61.219810
v -22.374800 73.217415 64.270813
v -19.512199 72.958107 59.268913
v -25.276400 68.177910 56.217911
v -17.508499 70.338409 67.348213
v -14.646000 70.079117 62.346310
v -28.639999 59.875412 54.723312
v -31.502501 60.134609 59.725212
v -34.497101 33.506207 59.665905
v -38.681599 38.499908 65.042610
v -34.055000 38.229008 68.894905
v -29.870501 33.235306 63.518204
v -42.730301 35.492306 69.490707
v -38.103699 35.221409 73.343010
v -27.722700 24.562010 60.329002
v -32.349300 24.832909 56.476704
v -32.764801 35.006111 54.327503
v -35.745201 36.228710 51.064610
v -39.119400 36.053810 53.990009
v -36.139000 34.831211 57.252903
v -37.038700 32.323311 49.243504
v -40.412899 32.148411 52.168903
v -33.465099 30.199709 59.972504
v -30.090900 30.374609 57.047104
v -29.367701 83.254112 58.864914
v -27.256399 86.165215 57.763817
v -27.206600 85.184608 55.266716
v -29.317900 82.273407 56.367817
v -24.287300 85.862213 58.004116
v -24.237499 84.881615 55.507015
v -29.628500 78.350212 57.902313
v -29.678301 79.330811 60.399410
v -25.743601 50.200508 60.838909
v -16.955200 56.692009 59.743107
v -17.666901 56.339912 51.949409
v -26.455400 49.848412 53.045208
v -9.145000 52.782307 59.376007
v -9.856700 52.430214 51.582306
v -31.361099 38.573811 54.002609
v -30.649300 38.925907 61.796307
v -27.471001 7.061412 41.535099
v -27.644501 1.181512 43.416698
v -34.339600 1.842513 44.997398
v -34.166100 7.722412 43.115799
v -38.522499 12.212310 50.853203
v -38.522499 1.441711 50.853199
v -45.206200 1.441710 57.745602
v -45.206200 12.212309 57.745605
v -46.720100 8.783008 67.438904
v -46.720100 1.583607 67.438904
v -37.479099 1.583607 65.224899
v -37.479099 8.783009 65.224899
v -50.952202 5.122509 58.166302
v -48.873699 0.491210 56.789799
v -44.610802 2.954409 54.939400
v -46.689400 7.585710 56.315800
vt 0.220000 0.297100
vt 0.220000 0.012500
vt 0.504500 0.012500
vt 0.504500 0.297100
vt 0.012700 0.674300
vt 0.012700 0.531100
vt 0.155900 0.531100
vt 0.155900 0.674300
vt 0.122200 0.166700
vt 0.122200 0.333300
vt 0.000000 0.333300
vt 0.000000 0.166700
vt 0.122200 0.500000
vt 0.000000 0.500000
vt 0.000000 0.000000
vt 0.122200 0.000000
vt 0.122200 0.166700
vt 0.122200 0.333300
vt 0.000000 0.333300
vt 0.000000 0.166700
vt 0.122200 0.500000
vt 0.000000 0.500000
vt 0.000000 0.000000
vt 0.122200 0.000000
vt 0.665900 0.113100
vt 0.665900 0.143400
vt 0.615000 0.134100
vt 0.615000 0.098300
vt 0.665900 0.175000
vt 0.615000 0.170100
vt 0.665900 0.207300
vt 0.615000 0.206000
vt 0.665900 0.239500
vt 0.615000 0.242200
vt 0.665900 0.271400
vt 0.615000 0.278300
vt 0.665900 0.302300
vt 0.615000 0.314400
vt 0.665900 0.331200
vt 0.615000 0.350000
vt 0.665900 0.357400
vt 0.615000 0.382900
vt 0.665900 0.059400
vt 0.665900 0.084800
vt 0.615000 0.063300
vt 0.615000 0.031100
vt 0.601700 0.131800
vt 0.575100 0.127900
vt 0.575100 0.089700
vt 0.601700 0.094800
vt 0.601700 0.168700
vt 0.575100 0.166300
vt 0.601700 0.205700
vt 0.575100 0.205000
vt 0.601700 0.242800
vt 0.575100 0.243700
vt 0.601700 0.279900
vt 0.575100 0.282400
vt 0.601700 0.317200
vt 0.575100 0.321000
vt 0.601700 0.355100
vt 0.575100 0.360000
vt 0.601700 0.394400
vt 0.575100 0.402100
vt 0.601700 0.057500
vt 0.575100 0.051200
vt 0.575100 0.009600
vt 0.601700 0.018900
vt 0.474200 0.437800
vt 0.439600 0.426600
vt 0.418200 0.397200
vt 0.418200 0.360800
vt 0.439600 0.331400
vt 0.474200 0.320100
vt 0.508800 0.331400
vt 0.530200 0.360800
vt 0.530200 0.397200
vt 0.508800 0.426600
vt 0.557700 0.125800
vt 0.557700 0.087400
vt 0.557700 0.165000
vt 0.557700 0.204600
vt 0.557700 0.244300
vt 0.557700 0.283700
vt 0.557700 0.322500
vt 0.557700 0.360300
vt 0.557700 0.396600
vt 0.557700 0.050000
vt 0.557700 0.014100
vt 0.545700 0.124100
vt 0.545700 0.085300
vt 0.545700 0.163900
vt 0.545700 0.204300
vt 0.545700 0.244800
vt 0.545700 0.284800
vt 0.545700 0.323900
vt 0.545700 0.361100
vt 0.545700 0.396600
vt 0.545700 0.048600
vt 0.545700 0.013400
vt 0.448300 0.014400
vt 0.504900 0.014400
vt 0.504900 0.274400
vt 0.448300 0.274400
vt 0.222000 0.014400
vt 0.278600 0.014400
vt 0.278600 0.274400
vt 0.222000 0.274400
vt 0.335200 0.014400
vt 0.335200 0.274400
vt 0.391700 0.014400
vt 0.391700 0.274400
vt 0.504900 0.297300
vt 0.448300 0.297300
vt 0.278600 0.297300
vt 0.222000 0.297300
vt 0.335200 0.297300
vt 0.391700 0.297300
vt 0.122200 0.166700
vt 0.122200 0.333300
vt 0.000000 0.333300
vt 0.000000 0.166700
vt 0.122200 0.500000
vt 0.000000 0.500000
vt 0.000000 0.000000
vt 0.122200 0.000000
vt 0.122200 0.166700
vt 0.122200 0.333300
vt 0.000000 0.333300
vt 0.000000 0.166700
vt 0.122200 0.500000
vt 0.000000 0.500000
vt 0.000000 0.000000
vt 0.122200 0.000000
vt 0.122200 0.166700
vt 0.122200 0.333300
vt 0.000000 0.333300
vt 0.000000 0.166700
vt 0.122200 0.500000
vt 0.000000 0.500000
vt 0.000000 0.000000
vt 0.122200 0.000000
vt 0.122200 0.166700
vt 0.122200 0.333300
vt 0.000000 0.333300
vt 0.000000 0.166700
vt 0.122200 0.500000
vt 0.000000 0.500000
vt 0.000000 0.000000
vt 0.122200 0.000000
vt 0.122200 0.166700
vt 0.122200 0.333300
vt 0.000000 0.333300
vt 0.000000 0.166700
vt 0.122200 0.500000
vt 0.000000 0.500000
vt 0.000000 0.000000
vt 0.122200 0.000000
vt 0.122200 0.166700
vt 0.122200 0.333300
vt 0.000000 0.333300
vt 0.000000 0.166700
vt 0.122200 0.500000
vt 0.000000 0.500000
vt 0.000000 0.000000
vt 0.122200 0.000000
vt 0.122200 0.166700
vt 0.122200 0.333300
vt 0.000000 0.333300
vt 0.000000 0.166700
vt 0.122200 0.500000
vt 0.000000 0.500000
vt 0.000000 0.000000
vt 0.122200 0.000000
vt 0.122200 0.166700
vt 0.122200 0.333300
vt 0.000000 0.333300
vt 0.000000 0.166700
vt 0.122200 0.500000
vt 0.000000 0.500000
vt 0.000000 0.000000
vt 0.122200 0.000000
vt 0.012700 0.674300
vt 0.012700 0.531100
vt 0.155900 0.531100
vt 0.155900 0.674300
vt 0.012700 0.674300
vt 0.012700 0.531100
vt 0.155900 0.531100
vt 0.155900 0.674300
vt 0.012700 0.674300
vt 0.012700 0.531100
vt 0.155900 0.531100
vt 0.155900 0.674300
vt 0.012700 0.674300
vt 0.012700 0.531100
vt 0.155900 0.531100
vt 0.155900 0.674300
vn 0.0000 1.0000 0.0000
vn -0.7071 0.0000 -0.7071
vn -0.5888 0.8053 0.0693
vn -0.0869 0.9958 -0.0299
vn 0.4344 0.8928 -0.1191
vn -0.0942 0.9951 -0.0285
vn -0.7725 0.6253 0.1107
vn -0.9038 0.4028 0.1445
vn 0.4065 0.8053 -0.4316
vn 0.0857 0.9958 -0.0330
vn -0.2562 0.8928 0.3705
vn 0.0905 0.9951 -0.0387
vn 0.5207 0.6253 -0.5813
vn 0.5995 0.4028 -0.6917
vn 0.9350 -0.1831 -0.3038
vn 0.7939 -0.1922 -0.5768
vn 0.3033 -0.1922 -0.9333
vn 0.1691 -0.8370 -0.5204
vn 0.4427 -0.8370 -0.3216
vn -0.3033 -0.1922 -0.9333
vn -0.1691 -0.8370 -0.5204
vn -0.7939 -0.1922 -0.5768
vn -0.4427 -0.8370 -0.3216
vn -0.9814 -0.1922 0.0000
vn -0.5472 -0.8370 0.0000
vn -0.7939 -0.1922 0.5768
vn -0.4427 -0.8370 0.3216
vn -0.3033 -0.1922 0.9333
vn -0.1691 -0.8370 0.5204
vn 0.3033 -0.1922 0.9333
vn 0.1691 -0.8370 0.5204
vn 0.7939 -0.1922 0.5768
vn 0.4427 -0.8370 0.3216
vn 0.9814 -0.1922 -0.0000
vn 0.5472 -0.8370 0.0000
vn 0.5796 -0.6977 -0.4211
vn 0.6545 0.5878 -0.4755
vn 0.8090 0.5878 0.0000
vn 0.7164 -0.6977 0.0000
vn 0.2214 -0.6977 -0.6814
vn 0.2500 0.5878 -0.7694
vn -0.2214 -0.6977 -0.6814
vn -0.2500 0.5878 -0.7694
vn -0.5796 -0.6977 -0.4211
vn -0.6545 0.5878 -0.4755
vn -0.7164 -0.6977 -0.0000
vn -0.8090 0.5878 -0.0000
vn -0.5796 -0.6977 0.4211
vn -0.6545 0.5878 0.4755
vn -0.2214 -0.6977 0.6814
vn -0.2500 0.5878 0.7694
vn 0.2214 -0.6977 0.6814
vn 0.2500 0.5878 0.7694
vn 0.5796 -0.6977 0.4211
vn 0.6545 0.5878 0.4755
vn -0.7653 0.6437 -0.0000
vn -0.6191 0.6437 0.4498
vn -0.2365 0.6437 0.7278
vn 0.2365 0.6437 0.7278
vn 0.6191 0.6437 0.4498
vn 0.7653 0.6437 -0.0000
vn 0.6191 0.6437 -0.4498
vn 0.2365 0.6437 -0.7278
vn -0.2365 0.6437 -0.7278
vn -0.6191 0.6437 -0.4498
vn -0.5025 0.7837 0.3651
vn -0.6211 0.7837 -0.0000
vn -0.1919 0.7837 0.5907
vn 0.1919 0.7837 0.5907
vn 0.5025 0.7837 0.3651
vn 0.6211 0.7837 -0.0000
vn 0.5025 0.7837 -0.3651
vn 0.1919 0.7837 -0.5907
vn -0.1919 0.7837 -0.5907
vn -0.5025 0.7837 -0.3651
vn 0.8090 0.0000 -0.5878
vn 0.3091 0.0000 -0.9510
vn -0.8090 0.0000 -0.5878
vn -0.8082 0.0459 -0.5872
vn 0.3087 0.0459 -0.9501
vn -0.8090 -0.0000 0.5878
vn -0.8082 0.0459 0.5872
vn 0.3090 -0.0000 0.9511
vn 0.3087 0.0459 0.9500
vn 1.0000 0.0000 -0.0000
vn 0.9989 0.0459 -0.0000
vn 0.3077 0.0934 -0.9469
vn 0.9956 0.0934 -0.0000
vn -0.8055 0.0933 -0.5852
vn -0.8055 0.0933 0.5852
vn 0.3077 0.0934 0.9469
vn 0.3314 0.8291 -0.4503
vn 0.0208 0.9992 -0.0348
vn -0.2922 0.8751 0.3859
vn 0.0253 0.9988 -0.0408
vn 0.4486 0.6566 -0.6063
vn 0.5355 0.4394 -0.7212
vn 0.4487 0.6566 -0.6063
vn 0.1498 0.7302 -0.6666
vn -0.2505 0.9065 -0.3398
vn -0.5726 0.8157 0.0824
vn -0.2453 0.9059 -0.3452
vn 0.3306 0.5652 -0.7558
vn 0.4889 0.3618 -0.7938
vn 0.2637 0.8913 0.3689
vn 0.1836 0.9700 -0.1591
vn 0.0580 0.7835 -0.6187
vn 0.1894 0.9731 -0.1313
vn 0.2740 0.6656 0.6942
vn 0.2438 0.3517 0.9038
vn 0.2746 0.6779 0.6820
vn -0.4956 0.8053 -0.3254
vn -0.0473 0.9958 -0.0787
vn 0.4093 0.8928 0.1880
vn -0.0539 0.9951 -0.0824
vn -0.6629 0.6253 -0.4118
vn -0.7852 0.4028 -0.4703
vn 0.5206 0.6253 -0.5813
vn 0.1467 0.9628 0.2268
vn -0.2242 0.9549 -0.1948
vn -0.4727 0.7353 -0.4857
vn -0.2208 0.9565 -0.1908
vn 0.1860 0.9465 0.2637
vn 0.3361 0.8403 0.4254
vn -0.8274 0.5170 -0.2195
vn -0.4092 0.8465 -0.3406
vn 0.1235 0.9245 -0.3606
vn -0.4160 0.8436 -0.3396
vn -0.9443 0.2995 -0.1364
vn -0.9971 0.0617 -0.0441
vn -0.9443 0.2995 -0.1365
vn -0.5926 0.8053 0.0177
vn -0.0839 0.9958 -0.0373
vn 0.4431 0.8928 -0.0808
vn -0.0914 0.9951 -0.0366
vn -0.7792 0.6253 0.0429
vn -0.9130 0.4028 0.0652
vn -0.2469 -0.2887 -0.9250
vn -0.7179 0.0000 -0.6962
vn 0.2330 0.0000 0.9725
vn 0.4324 -0.0731 0.8987
usemtl plants_model:Plane043SG
s 1
f 1/1/1 2/2/1 3/3/1 4/4/1
f 5/5/2 6/6/2 7/7/2 8/8/2
f 9/9/3 10/10/3 11/11/3 12/12/3
f 10/10/4 13/13/5 14/14/5 11/11/6
f 12/12/7 15/15/8 16/16/8 9/9/7
f 17/17/9 18/18/9 19/19/9 20/20/9
f 18/18/10 21/21/11 22/22/11 19/19/12
f 20/20/13 23/23/14 24/24/14 17/17/13
f 25/25/15 26/26/15 27/27/15 28/28/15
f 26/26/16 29/29/17 30/30/18 27/27/19
f 29/29/17 31/31/20 32/32/21 30/30/18
f 31/31/20 33/33/22 34/34/23 32/32/21
f 33/33/22 35/35/24 36/36/25 34/34/23
f 35/35/24 37/37/26 38/38/27 36/36/25
f 37/37/26 39/39/28 40/40/29 38/38/27
f 39/39/28 41/41/30 42/42/31 40/40/29
f 41/43/30 43/44/32 44/45/33 42/46/31
f 43/44/32 25/25/34 28/28/35 44/45/33
f 45/47/36 46/48/37 47/49/38 48/50/39
f 49/51/40 50/52/41 46/48/37 45/47/36
f 51/53/42 52/54/43 50/52/41 49/51/40
f 53/55/44 54/56/45 52/54/43 51/53/42
f 55/57/46 56/58/47 54/56/45 53/55/44
f 57/59/48 58/60/49 56/58/47 55/57/46
f 59/61/50 60/62/51 58/60/49 57/59/48
f 61/63/52 62/64/53 60/62/51 59/61/50
f 63/65/54 64/66/55 62/67/53 61/68/52
f 48/50/39 47/49/38 64/66/55 63/65/54
f 65/69/56 66/70/57 67/71/58 68/72/59 69/73/60 70/74/61 71/75/62 72/76/63 73/77/64 74/78/65
f 28/28/35 27/27/19 45/47/36 48/50/39
f 27/27/19 30/30/18 49/51/40 45/47/36
f 30/30/18 32/32/21 51/53/42 49/51/40
f 32/32/21 34/34/23 53/55/44 51/53/42
f 34/34/23 36/36/25 55/57/46 53/55/44
f 36/36/25 38/38/27 57/59/48 55/57/46
f 38/38/27 40/40/29 59/61/50 57/59/48
f 40/40/29 42/42/31 61/63/52 59/61/50
f 42/46/31 44/45/33 63/65/54 61/68/52
f 44/45/33 28/28/35 48/50/39 63/65/54
f 47/49/38 46/48/37 75/79/66 76/80/67
f 46/48/37 50/52/41 77/81/68 75/79/66
f 50/52/41 52/54/43 78/82/69 77/81/68
f 52/54/43 54/56/45 79/83/70 78/82/69
f 54/56/45 56/58/47 80/84/71 79/83/70
f 56/58/47 58/60/49 81/85/72 80/84/71
f 58/60/49 60/62/51 82/86/73 81/85/72
f 60/62/51 62/64/53 83/87/74 82/86/73
f 62/67/53 64/66/55 84/88/75 83/89/74
f 64/66/55 47/49/38 76/80/67 84/88/75
f 76/80/67 75/79/66 66/90/57 65/91/56
f 75/79/66 77/81/68 67/92/58 66/90/57
f 77/81/68 78/82/69 68/93/59 67/92/58
f 78/82/69 79/83/70 69/94/60 68/93/59
f 79/83/70 80/84/71 70/95/61 69/94/60
f 80/84/71 81/85/72 71/96/62 70/95/61
f 81/85/72 82/86/73 72/97/63 71/96/62
f 82/86/73 83/87/74 73/98/64 72/97/63
f 83/89/74 84/88/75 74/99/65 73/100/64
f 84/88/75 76/80/67 65/91/56 74/99/65
f 85/101/76 86/102/76 87/103/76 88/104/76
f 86/105/77 89/106/78 90/107/79 87/108/80
f 89/106/78 91/109/81 92/110/82 90/107/79
f 91/109/81 93/111/83 94/112/84 92/110/82
f 93/111/83 85/101/85 88/104/86 94/112/84
f 87/103/80 95/113/87 96/114/88 88/104/86
f 90/107/79 97/115/89 95/116/87 87/108/80
f 92/110/82 98/117/90 97/115/89 90/107/79
f 94/112/84 99/118/91 98/117/90 92/110/82
f 88/104/86 96/114/88 99/118/91 94/112/84
f 100/119/92 101/120/92 102/121/92 103/122/92
f 101/120/93 104/123/94 105/124/94 102/121/95
f 103/122/96 106/125/97 107/126/97 100/119/98
f 108/127/99 109/128/99 110/129/99 111/130/99
f 109/128/100 112/131/101 113/132/101 110/129/102
f 111/130/103 114/133/104 115/134/104 108/127/103
f 116/135/105 117/136/105 118/137/105 119/138/105
f 117/136/106 120/139/107 121/140/107 118/137/108
f 119/138/109 122/141/110 123/142/110 116/135/111
f 124/143/112 125/144/112 126/145/112 127/146/112
f 125/144/113 128/147/114 129/148/114 126/145/115
f 127/146/116 130/149/117 131/150/117 124/143/116
f 132/151/9 133/152/9 134/153/9 135/154/9
f 133/152/10 136/155/11 137/156/11 134/153/12
f 135/154/118 138/157/14 139/158/14 132/151/13
f 140/159/119 141/160/119 142/161/119 143/162/119
f 141/160/120 144/163/121 145/164/121 142/161/122
f 143/162/123 146/165/124 147/166/124 140/159/123
f 148/167/125 149/168/125 150/169/125 151/170/125
f 149/168/126 152/171/127 153/172/127 150/169/128
f 151/170/129 154/173/130 155/174/130 148/167/131
f 156/175/132 157/176/132 158/177/132 159/178/132
f 157/176/133 160/179/134 161/180/134 158/177/135
f 159/178/136 162/181/137 163/182/137 156/175/136
f 164/183/138 165/184/138 166/185/138 167/186/138
f 168/187/139 169/188/139 170/189/139 171/190/139
f 172/191/140 173/192/140 174/193/140 175/194/140
f 176/195/141 177/196/141 178/197/141 179/198/141
